<svg xmlns="http://www.w3.org/2000/svg" xmlns:xlink="http://www.w3.org/1999/xlink" width="109" height="109" viewBox="0 0 109 109">
  <defs>
    <clipPath id="clip-path">
      <rect id="Rectángulo_401515" data-name="Rectángulo 401515" width="70.741" height="71.683" fill="none"/>
    </clipPath>
  </defs>
  <g id="Grupo_1099569" data-name="Grupo 1099569" transform="translate(-1038.051 -463)">
    <circle id="Elipse_11501" data-name="Elipse 11501" cx="54.5" cy="54.5" r="54.5" transform="translate(1038.051 463)" fill="#fff"/>
    <g id="Grupo_1099802" data-name="Grupo 1099802" transform="translate(1057.259 479.658)">
      <g id="Grupo_1099801" data-name="Grupo 1099801" clip-path="url(#clip-path)">
        <path id="Trazado_874117" data-name="Trazado 874117" d="M72.22,17.132a1.333,1.333,0,0,1-1.287-.986A11.724,11.724,0,0,0,69.7,13.219a1.351,1.351,0,0,1,.205-1.625l1.735-1.735-3.1-3.1L66.788,8.513a1.322,1.322,0,0,1-1.6.215,11.893,11.893,0,0,0-2.83-1.16,1.343,1.343,0,0,1-.991-1.292V3.66H56.986V6.239a1.325,1.325,0,0,1-1,1.292A12.113,12.113,0,0,0,53.2,8.654a1.342,1.342,0,0,1-1.593-.219l-1.895-1.9-3.1,3.1,1.8,1.8a1.34,1.34,0,0,1,.205,1.63,12.275,12.275,0,0,0-1.233,2.8,1.338,1.338,0,0,1-1.278.95h-2.6v4.383h2.415a1.333,1.333,0,0,1,1.3,1.036,11.236,11.236,0,0,0,1.109,2.931,1.338,1.338,0,0,1-.228,1.584l-1.716,1.716,3.1,3.1,1.575-1.575a1.331,1.331,0,0,1,1.648-.187,11.993,11.993,0,0,0,2.986,1.315,1.334,1.334,0,0,1,.972,1.283v2.269h4.383V32.544a1.341,1.341,0,0,1,1.018-1.3,11.6,11.6,0,0,0,3.091-1.228,1.34,1.34,0,0,1,1.6.21l1.566,1.557,3.1-3.1L69.9,27.175a1.328,1.328,0,0,1-.205-1.621,11.834,11.834,0,0,0,1.26-3.045,1.346,1.346,0,0,1,1.292-1h2.278V17.132Zm-13.2,10.555a8.521,8.521,0,1,1,8.523-8.523,8.533,8.533,0,0,1-8.523,8.523" transform="translate(-23.647 -1.989)" fill="#c8d5c6"/>
        <path id="Trazado_874118" data-name="Trazado 874118" d="M32.37,87.082a1.338,1.338,0,0,1-1.292-.986,11.882,11.882,0,0,0-1.233-2.926,1.338,1.338,0,0,1,.205-1.625l1.735-1.735-3.1-3.1-1.753,1.748a1.327,1.327,0,0,1-1.607.215,11.75,11.75,0,0,0-2.826-1.16,1.341,1.341,0,0,1-1-1.292V73.61H17.132v2.579a1.33,1.33,0,0,1-1,1.292A12.147,12.147,0,0,0,13.347,78.6a1.331,1.331,0,0,1-1.593-.224L9.859,76.486l-3.091,3.1,1.8,1.8a1.333,1.333,0,0,1,.2,1.63,12.388,12.388,0,0,0-1.233,2.8,1.334,1.334,0,0,1-1.278.95H3.66v4.383H6.075a1.341,1.341,0,0,1,1.3,1.036,11.224,11.224,0,0,0,1.1,2.931A1.337,1.337,0,0,1,8.253,96.7L6.536,98.412l3.1,3.1,1.57-1.575a1.331,1.331,0,0,1,1.648-.187,11.844,11.844,0,0,0,2.99,1.31,1.349,1.349,0,0,1,.968,1.287v2.269H21.2v-2.127a1.337,1.337,0,0,1,1.013-1.3,11.625,11.625,0,0,0,3.1-1.228,1.334,1.334,0,0,1,1.6.21l1.561,1.557,3.1-3.1-1.516-1.516a1.335,1.335,0,0,1-.21-1.625,11.739,11.739,0,0,0,1.26-3.04,1.351,1.351,0,0,1,1.3-1h2.278V87.082Zm-13.2,10.555a8.521,8.521,0,1,1,8.519-8.523,8.53,8.53,0,0,1-8.519,8.523" transform="translate(-1.989 -40.006)" fill="#c8d5c6"/>
        <path id="Trazado_874119" data-name="Trazado 874119" d="M112.08,87.082a1.34,1.34,0,0,1-1.292-.982,11.913,11.913,0,0,0-1.233-2.931,1.338,1.338,0,0,1,.205-1.625l1.735-1.735-3.1-3.1-1.753,1.748a1.327,1.327,0,0,1-1.607.215,11.75,11.75,0,0,0-2.826-1.16,1.341,1.341,0,0,1-1-1.292V73.61H96.846v2.579a1.334,1.334,0,0,1-1,1.292A12.147,12.147,0,0,0,93.057,78.6a1.33,1.33,0,0,1-1.589-.224l-1.9-1.895-3.091,3.1,1.8,1.8a1.333,1.333,0,0,1,.2,1.63,12.478,12.478,0,0,0-1.233,2.8,1.334,1.334,0,0,1-1.278.95h-2.6v4.383h2.415a1.337,1.337,0,0,1,1.3,1.036,11.224,11.224,0,0,0,1.1,2.931,1.339,1.339,0,0,1-.228,1.584l-1.716,1.716,3.1,3.1,1.57-1.575a1.331,1.331,0,0,1,1.648-.187,11.773,11.773,0,0,0,2.99,1.31,1.349,1.349,0,0,1,.968,1.287v2.269h4.387v-2.127a1.337,1.337,0,0,1,1.013-1.3,11.625,11.625,0,0,0,3.1-1.228,1.341,1.341,0,0,1,1.6.21l1.566,1.557,3.091-3.1-1.516-1.516a1.335,1.335,0,0,1-.21-1.625,11.913,11.913,0,0,0,1.265-3.04,1.342,1.342,0,0,1,1.292-1h2.278V87.082Zm-13.2,10.555a8.521,8.521,0,1,1,8.519-8.523,8.53,8.53,0,0,1-8.519,8.523" transform="translate(-45.31 -40.006)" fill="#c8d5c6"/>
        <path id="Trazado_874120" data-name="Trazado 874120" d="M40.685,20.876h2.986a12.8,12.8,0,0,0,1.087,2.871L42.63,25.88a.832.832,0,0,0,0,1.182l4.278,4.287a.841.841,0,0,0,.589.247.825.825,0,0,0,.593-.247l1.977-1.977a13.676,13.676,0,0,0,2.94,1.292v2.853a.836.836,0,0,0,.835.835H59.9a.836.836,0,0,0,.835-.835v-2.7a13.435,13.435,0,0,0,3.045-1.205l1.968,1.958a.832.832,0,0,0,1.182,0L71.2,27.29a.824.824,0,0,0,.247-.593.841.841,0,0,0-.247-.589l-1.926-1.922a13.749,13.749,0,0,0,1.242-2.995h2.853a.833.833,0,0,0,.835-.835V14.307a.833.833,0,0,0-.835-.835H70.487a13.54,13.54,0,0,0-1.21-2.867l2.141-2.141a.832.832,0,0,0,0-1.182L67.145,3a.84.84,0,0,0-1.182,0L63.8,5.163a13.724,13.724,0,0,0-2.753-1.132V.835A.836.836,0,0,0,60.211,0H54.162a.836.836,0,0,0-.835.835V3.994a13.824,13.824,0,0,0-2.7,1.087l-2.31-2.305a.858.858,0,0,0-1.182,0L42.858,7.053a.832.832,0,0,0,0,1.182l2.2,2.21a14.086,14.086,0,0,0-1.191,2.707H40.685a.836.836,0,0,0-.835.835v6.053a.833.833,0,0,0,.835.835m.835-6.053h2.6a1.338,1.338,0,0,0,1.278-.95,12.275,12.275,0,0,1,1.233-2.8,1.34,1.34,0,0,0-.205-1.63l-1.8-1.8,3.1-3.1,1.895,1.9a1.342,1.342,0,0,0,1.593.219,12.113,12.113,0,0,1,2.78-1.123A1.325,1.325,0,0,0,55,4.25V1.671h4.378V4.287a1.343,1.343,0,0,0,.991,1.292,11.893,11.893,0,0,1,2.83,1.16,1.322,1.322,0,0,0,1.6-.215l1.753-1.748,3.1,3.1L67.912,9.605a1.351,1.351,0,0,0-.205,1.625,11.723,11.723,0,0,1,1.237,2.926,1.333,1.333,0,0,0,1.287.986h2.3v4.378H70.254a1.346,1.346,0,0,0-1.292,1,11.835,11.835,0,0,1-1.26,3.045,1.328,1.328,0,0,0,.205,1.621l1.52,1.516-3.1,3.1L64.767,28.24a1.34,1.34,0,0,0-1.6-.21,11.6,11.6,0,0,1-3.091,1.228,1.341,1.341,0,0,0-1.018,1.3v2.127H54.678V30.413a1.334,1.334,0,0,0-.972-1.283,11.993,11.993,0,0,1-2.986-1.315A1.331,1.331,0,0,0,49.072,28L47.5,29.578l-3.1-3.1,1.716-1.716a1.338,1.338,0,0,0,.228-1.584,11.236,11.236,0,0,1-1.109-2.931,1.333,1.333,0,0,0-1.3-1.036H41.521Z" transform="translate(-21.658)" fill="#1a1a1a"/>
        <path id="Trazado_874121" data-name="Trazado 874121" d="M67.333,36a8.521,8.521,0,1,0-8.523-8.523A8.533,8.533,0,0,0,67.333,36m0-15.371a6.85,6.85,0,1,1-6.852,6.848,6.86,6.86,0,0,1,6.852-6.848" transform="translate(-31.962 -10.304)" fill="#1a1a1a"/>
        <path id="Trazado_874122" data-name="Trazado 874122" d="M25.893,101.518a.827.827,0,0,0,1.178,0l4.278-4.278a.839.839,0,0,0,.242-.593.822.822,0,0,0-.247-.589l-1.926-1.922a13.527,13.527,0,0,0,1.242-2.995h2.858a.836.836,0,0,0,.835-.835V84.257a.836.836,0,0,0-.835-.835H30.632a13.766,13.766,0,0,0-1.205-2.867l2.141-2.141a.84.84,0,0,0,0-1.182L27.29,72.954a.84.84,0,0,0-1.182,0l-2.159,2.159a13.5,13.5,0,0,0-2.757-1.132v-3.2a.836.836,0,0,0-.835-.835H14.307a.836.836,0,0,0-.835.835v3.159a13.94,13.94,0,0,0-2.7,1.087L8.464,72.726a.852.852,0,0,0-.593-.247.841.841,0,0,0-.589.247L3,77a.84.84,0,0,0,0,1.182l2.21,2.21A14.086,14.086,0,0,0,4.022,83.1H.835A.836.836,0,0,0,0,83.938v6.053a.833.833,0,0,0,.835.835H3.816A12.958,12.958,0,0,0,4.908,93.7L2.776,95.83a.84.84,0,0,0,0,1.182L7.053,101.3a.852.852,0,0,0,.593.247.822.822,0,0,0,.589-.247l1.977-1.977a13.775,13.775,0,0,0,2.94,1.292v2.853a.836.836,0,0,0,.835.835h6.058a.836.836,0,0,0,.835-.835v-2.7a13.4,13.4,0,0,0,3.04-1.205Zm-5.67-2.31a1.337,1.337,0,0,0-1.013,1.3v2.127H14.823v-2.269a1.349,1.349,0,0,0-.968-1.287,11.844,11.844,0,0,1-2.99-1.31,1.331,1.331,0,0,0-1.648.187l-1.57,1.575-3.1-3.1,1.716-1.716a1.337,1.337,0,0,0,.228-1.584,11.224,11.224,0,0,1-1.1-2.931,1.341,1.341,0,0,0-1.3-1.036H1.671V84.773h2.6a1.334,1.334,0,0,0,1.278-.95,12.388,12.388,0,0,1,1.233-2.8,1.333,1.333,0,0,0-.2-1.63l-1.8-1.8L7.87,74.5l1.895,1.895a1.331,1.331,0,0,0,1.593.224,12.147,12.147,0,0,1,2.785-1.123,1.33,1.33,0,0,0,1-1.292V71.621h4.378v2.616a1.341,1.341,0,0,0,1,1.292,11.751,11.751,0,0,1,2.826,1.16,1.327,1.327,0,0,0,1.607-.215L26.7,74.725l3.1,3.1-1.735,1.735a1.338,1.338,0,0,0-.205,1.625,11.882,11.882,0,0,1,1.233,2.926,1.338,1.338,0,0,0,1.292.986h2.3v4.378H30.4a1.351,1.351,0,0,0-1.3,1,11.739,11.739,0,0,1-1.26,3.04,1.335,1.335,0,0,0,.21,1.625l1.516,1.516-3.1,3.1L24.917,98.19a1.334,1.334,0,0,0-1.6-.21,11.625,11.625,0,0,1-3.1,1.228" transform="translate(0 -38.017)" fill="#1a1a1a"/>
        <path id="Trazado_874123" data-name="Trazado 874123" d="M27.483,88.91A8.521,8.521,0,1,0,36,97.429a8.529,8.529,0,0,0-8.519-8.519m0,15.371a6.85,6.85,0,1,1,6.848-6.852,6.858,6.858,0,0,1-6.848,6.852" transform="translate(-10.304 -48.321)" fill="#1a1a1a"/>
        <path id="Trazado_874124" data-name="Trazado 874124" d="M113.227,83.422h-2.885a13.293,13.293,0,0,0-1.205-2.867l2.141-2.141a.84.84,0,0,0,0-1.182L107,72.954a.84.84,0,0,0-1.182,0l-2.159,2.159a13.5,13.5,0,0,0-2.757-1.132v-3.2a.836.836,0,0,0-.835-.835H94.022a.837.837,0,0,0-.84.835v3.159a13.94,13.94,0,0,0-2.7,1.087l-2.305-2.305a.852.852,0,0,0-.593-.247.841.841,0,0,0-.589.247L82.714,77a.84.84,0,0,0,0,1.182l2.21,2.21A14.086,14.086,0,0,0,83.732,83.1H80.545a.836.836,0,0,0-.835.835v6.053a.833.833,0,0,0,.835.835h2.981A13.044,13.044,0,0,0,84.618,93.7L82.486,95.83a.84.84,0,0,0,0,1.182l4.278,4.287a.852.852,0,0,0,.593.247.822.822,0,0,0,.589-.247l1.977-1.977a13.775,13.775,0,0,0,2.94,1.292v2.853a.836.836,0,0,0,.835.835h6.058a.836.836,0,0,0,.835-.835v-2.7a13.4,13.4,0,0,0,3.04-1.205l1.972,1.958a.827.827,0,0,0,1.178,0l4.278-4.278a.839.839,0,0,0,.242-.593.822.822,0,0,0-.247-.589l-1.926-1.922a13.527,13.527,0,0,0,1.242-2.995h2.858a.836.836,0,0,0,.835-.835V84.257a.836.836,0,0,0-.835-.835m-.835,6.049h-2.278a1.341,1.341,0,0,0-1.292,1,11.914,11.914,0,0,1-1.265,3.04,1.335,1.335,0,0,0,.21,1.625l1.516,1.516-3.091,3.1-1.566-1.557a1.341,1.341,0,0,0-1.6-.21,11.625,11.625,0,0,1-3.1,1.228,1.337,1.337,0,0,0-1.013,1.3v2.127H94.533v-2.269a1.349,1.349,0,0,0-.968-1.287,11.773,11.773,0,0,1-2.99-1.31,1.331,1.331,0,0,0-1.648.187l-1.57,1.575-3.1-3.1,1.716-1.716a1.339,1.339,0,0,0,.228-1.584,11.224,11.224,0,0,1-1.1-2.931,1.337,1.337,0,0,0-1.3-1.036H81.381V84.773h2.6a1.334,1.334,0,0,0,1.278-.95,12.478,12.478,0,0,1,1.233-2.8,1.333,1.333,0,0,0-.2-1.63l-1.8-1.8,3.091-3.1,1.9,1.895a1.33,1.33,0,0,0,1.589.224,12.147,12.147,0,0,1,2.785-1.123,1.334,1.334,0,0,0,1-1.292V71.621h4.373v2.616a1.341,1.341,0,0,0,1,1.292,11.75,11.75,0,0,1,2.826,1.16,1.327,1.327,0,0,0,1.607-.215l1.753-1.748,3.1,3.1-1.735,1.735a1.338,1.338,0,0,0-.205,1.625,11.913,11.913,0,0,1,1.233,2.931,1.34,1.34,0,0,0,1.292.982h2.3Z" transform="translate(-43.321 -38.017)" fill="#1a1a1a"/>
        <path id="Trazado_874125" data-name="Trazado 874125" d="M107.193,88.91a8.521,8.521,0,1,0,8.519,8.519,8.529,8.529,0,0,0-8.519-8.519m0,15.371a6.85,6.85,0,1,1,6.848-6.852,6.858,6.858,0,0,1-6.848,6.852" transform="translate(-53.626 -48.321)" fill="#1a1a1a"/>
        <path id="Trazado_874126" data-name="Trazado 874126" d="M1.211,46.691a.836.836,0,0,0,.835-.835,33.664,33.664,0,0,1,13.785-27.1.835.835,0,1,0-.984-1.35A35.338,35.338,0,0,0,.376,45.856a.836.836,0,0,0,.835.835" transform="translate(-0.204 -9.372)" fill="#1a1a1a"/>
        <path id="Trazado_874127" data-name="Trazado 874127" d="M73.524,148.085A33.656,33.656,0,0,1,48.7,148a.835.835,0,1,0-.625,1.55,35.327,35.327,0,0,0,26.066.086.835.835,0,1,0-.614-1.554" transform="translate(-25.842 -80.405)" fill="#1a1a1a"/>
        <path id="Trazado_874128" data-name="Trazado 874128" d="M120.116,18.605a33.649,33.649,0,0,1,13.876,27.169.836.836,0,0,0,1.671,0A35.326,35.326,0,0,0,121.1,17.252a.835.835,0,1,0-.98,1.353" transform="translate(-65.093 -9.29)" fill="#1a1a1a"/>
      </g>
    </g>
  </g>
</svg>
