<svg xmlns="http://www.w3.org/2000/svg" xmlns:xlink="http://www.w3.org/1999/xlink" width="1240.001" height="285.693" viewBox="0 0 1240.001 285.693">
  <defs>
    <clipPath id="clip-path">
      <path id="Trazado_873175" data-name="Trazado 873175" d="M19.934,0H1215.983c11.009,0,19.934,5.437,19.934,12.144V272.018c0,6.707-8.925,12.144-19.934,12.144H19.934C8.925,284.161,0,278.724,0,272.018V12.144C0,5.437,8.925,0,19.934,0Z" fill="#fbf2e0"/>
    </clipPath>
  </defs>
  <g id="Grupo_1099366" data-name="Grupo 1099366" transform="translate(-181.05 -12071)">
    <rect id="Rectángulo_401238" data-name="Rectángulo 401238" width="1240" height="284.078" rx="20" transform="translate(181.051 12071)" fill="#f6e5c2"/>
    <g id="Grupo_1099364" data-name="Grupo 1099364" transform="translate(181.05 12072.531)">
      <path id="Trazado_873159" data-name="Trazado 873159" d="M19.934,0H1215.983c11.009,0,19.934,4.124,19.934,9.211V206.326c0,5.087-8.925,9.211-19.934,9.211H19.934C8.925,215.537,0,211.413,0,206.326V9.211C0,4.124,8.925,0,19.934,0Z" transform="translate(0 0)" fill="#fbf2e0"/>
      <g id="Enmascarar_grupo_1098675" data-name="Enmascarar grupo 1098675" transform="translate(0 0)" clip-path="url(#clip-path)">
        <path id="Trazado_873174" data-name="Trazado 873174" d="M-16553.213-8534.438l12.537-19.285-12.537-53.028-23.549-35.809,36.086-72.257-12.537-24.042V-8774.2l-117.24-14.424-43.676-10.743-26.34-7.712-22.049,2.546h-30.7l-13.734-2.546-36.953,2.546a57.486,57.486,0,0,0-6.361,0c-6.24.111-50.826-2.975-59.092-2.546s-34.77,2.546-34.77,2.546-2.205-.953-26.57,0-66.838,0-66.838,0-22.111,6.535-38.541,5.166-53.713.912-63.256,0-8.25,3.26-35.957,0-51.459-5.166-51.459-5.166l-40.105,5.166s-19.895,3.838-27.332,0a45.734,45.734,0,0,0-25.309-5.166c-8.842.938-24.1-1.727-33.937,0s-30.338,13.163-49.465,5.166-58.25-12.572-58.25-12.572l-18.145,7.406-30.732,5.166s-56.443-6.269-65.787-5.166c-9.328,1.1-36.248.381-48.889,0s-36.336-1.947-47.289,0-38.115,5.166-38.115,5.166-24.82,3.585-34.375,0-7.031-5.038-15.906-5.166-27.314-3.017-30.678,0-3.939.6-9.779,5.166-25.8,10.743-25.8,10.743-10.658,22.324,0,26.448c10.637,4.121,12.035,7.951,16.691,12.2s9.111,14.613,9.111,14.613l-9.111,37.992v7.262s-14.277,6.006-16.691,9.145c-2.432,3.138.3-2.244,0,10.576-.318,12.816,2.891,21.445,0,27.826-2.908,6.383,1.281,12.742,0,15.5-1.3,2.758,19.951,6.549,16.691,10s0,10.313,0,10.313-16.541,1.234-16.691,3.235c-.184,2,3.016,8.409,0,14.419s-.775,19.014,0,21.076c.746,2.063-1.426,4.079,0,7.74,1.387,3.663,0,13.447,0,13.447l16.691,19.4s27.373,10.6,34.873,13.292,64.977,14.112,64.977,14.112-3.059-6.84,38.115-6.892,56.916,1.774,64.7,0,94.373,2.423,97.268,0,69.748-2.919,69.748-2.919,18.475,1.879,37.379,2.919,83.4,0,83.4,0,51.045-.015,52.641,0,64.061,2.587,72.1,3,77.012,7.232,81.611,3.895,49.422-2.41,54.055-3.895,37.158-3.2,50.949-3c13.773.2,64.016-2.919,64.016-2.919h87.746s30.484,12.368,54.9,9.811,103.313-3.895,103.313-3.895,56.385-5.07,58.818-5.916,11.162-10.924,11.162-10.924,38.629-5.824,43.584-6.67C-16579.666-8528.277-16553.213-8534.438-16553.213-8534.438Z" transform="translate(17804.977 8776.601)" fill="#fbf2e0"/>
      </g>
    </g>
  </g>
</svg>
