<svg xmlns="http://www.w3.org/2000/svg" xmlns:xlink="http://www.w3.org/1999/xlink" width="109" height="109" viewBox="0 0 109 109">
  <defs>
    <clipPath id="clip-path">
      <rect id="Rectángulo_401513" data-name="Rectángulo 401513" width="73.949" height="67.386" fill="none"/>
    </clipPath>
  </defs>
  <g id="Grupo_1099571" data-name="Grupo 1099571" transform="translate(-208.051 -463)">
    <circle id="Elipse_11499" data-name="Elipse 11499" cx="54.5" cy="54.5" r="54.5" transform="translate(208.051 463)" fill="#fff"/>
    <g id="Grupo_1099798" data-name="Grupo 1099798" transform="translate(229.051 483)">
      <g id="Grupo_1099797" data-name="Grupo 1099797" clip-path="url(#clip-path)">
        <path id="Trazado_874108" data-name="Trazado 874108" d="M44.245,32.318l3.138,22.366a27.692,27.692,0,0,1-15.77,4.883A27.934,27.934,0,1,1,58.36,39.751L45.75,31.368a.992.992,0,0,0-1.062-.011.971.971,0,0,0-.443.961" transform="translate(-1.707 -1.707)" fill="#c8d5c6"/>
        <path id="Trazado_874109" data-name="Trazado 874109" d="M49.232,40.089c-2.627-.583-6.353-2.614-6.353-5.723,0-4.16,3.412-4.782,5.447-4.782,3.109,0,4.824,1.281,5.558,4.155.306,1.2,2.983,1.035,2.739-.4a7.355,7.355,0,0,0-6.781-6.4V24.3c0-1.349-2.783-1.349-2.783,0v2.627c-4.26.493-6.959,3.318-6.959,7.4,0,5.1,3.449,6.688,8.324,8.381,2.875.652,5.926,2.786,5.926,6.161,0,3.619-2.036,5.612-5.734,5.612-3.813,0-5.9-1.5-6.759-4.859-.31-1.211-3-1.013-2.69.446a8.332,8.332,0,0,0,7.892,7.079v2.868c0,1.35,2.783,1.35,2.783,0v-2.88c4.548-.516,7.331-3.613,7.331-8.266,0-6.1-4.971-7.776-7.941-8.778" transform="translate(-18.253 -10.86)" fill="#1a1a1a"/>
        <path id="Trazado_874110" data-name="Trazado 874110" d="M73.517,49.241,58.345,39.165A29.925,29.925,0,1,0,45.98,55.122l1.478,10.529c.31.849.849,1.046,1.628.582l7.124-6.516,4.488,7.21a.97.97,0,0,0,1.345.31l6.511-4.093a.983.983,0,0,0,.31-1.345l-4.493-7.22,8.971-3.613a.983.983,0,0,0,.176-1.724M29.906,57.859A27.934,27.934,0,1,1,56.653,38.045l-12.61-8.384a.992.992,0,0,0-1.062-.011.971.971,0,0,0-.443.961l3.138,22.366a27.692,27.692,0,0,1-15.77,4.883M62.561,53.2a.972.972,0,0,0-.464,1.42l4.595,7.386-4.856,3.058-4.589-7.375a.98.98,0,0,0-1.489-.208l-6.623,6.062-4.36-31.048L70.891,49.844Z" fill="#1a1a1a"/>
      </g>
    </g>
  </g>
</svg>
