<svg xmlns="http://www.w3.org/2000/svg" xmlns:xlink="http://www.w3.org/1999/xlink" width="109" height="109" viewBox="0 0 109 109">
  <defs>
    <clipPath id="clip-path">
      <rect id="Rectángulo_401514" data-name="Rectángulo 401514" width="79.787" height="57.105" fill="none"/>
    </clipPath>
  </defs>
  <g id="Grupo_1099570" data-name="Grupo 1099570" transform="translate(-615.051 -463)">
    <circle id="Elipse_11500" data-name="Elipse 11500" cx="54.5" cy="54.5" r="54.5" transform="translate(615.051 463)" fill="#fff"/>
    <g id="Grupo_1099800" data-name="Grupo 1099800" transform="translate(635.051 486.947)">
      <g id="Grupo_1099799" data-name="Grupo 1099799" transform="translate(0 0)" clip-path="url(#clip-path)">
        <path id="Trazado_874111" data-name="Trazado 874111" d="M74.294,6.03V48.589q-.7,3.2-3.688,1.857s-10.684-7.885-10.814-7.912L44.51,38.858V16.493s15.547-4.506,15.639-4.576L70.606,4.173Q73.6,2.824,74.294,6.03" transform="translate(-20.406 -1.73)" fill="#c8d5c6"/>
        <path id="Trazado_874112" data-name="Trazado 874112" d="M53.509.461a4.284,4.284,0,0,0-4.489.384L38.709,8.492,22.972,13.024H12.883A13.054,13.054,0,0,0,0,26.021,12.81,12.81,0,0,0,6.45,37.182L1.175,55.849a.985.985,0,0,0,.953,1.256h9.5a.986.986,0,0,0,.953-.72L17.518,38.9h5.5l15.7,3.78,10.295,7.625a4.322,4.322,0,0,0,6.85-3.45V4.3A4.277,4.277,0,0,0,53.509.461M10.879,55.123H3.439L8.264,38.049a12.84,12.84,0,0,0,4.619.856h2.578Zm11.242-18.2h-5.35s-4.733-.022-5.145-.07A10.677,10.677,0,0,1,8.058,35.8a10.841,10.841,0,0,1-6.076-9.775,11.115,11.115,0,0,1,10.9-11.015h9.239Zm31.766,9.937q-.7,3.2-3.688,1.857S39.515,40.832,39.386,40.8L24.1,37.128V14.763s15.547-4.506,15.639-4.576L50.2,2.443Q53.189,1.094,53.888,4.3Z" transform="translate(0 0)" fill="#1a1a1a"/>
        <path id="Trazado_874113" data-name="Trazado 874113" d="M111.724,20.617c.113,0,15.537-5.622,15.537-5.622a.991.991,0,1,0-.681-1.861l-15.2,5.561a.991.991,0,0,0,.341,1.922" transform="translate(-50.767 -5.994)" fill="#1a1a1a"/>
        <path id="Trazado_874114" data-name="Trazado 874114" d="M127.26,62.719l-15.2-5.561a.991.991,0,1,0-.681,1.862l15.2,5.56c.748.272,2.337-1.255.681-1.861" transform="translate(-50.767 -26.178)" fill="#1a1a1a"/>
        <path id="Trazado_874115" data-name="Trazado 874115" d="M130.123,40.22H112.945a.991.991,0,1,0,0,1.982h17.178a.991.991,0,1,0,0-1.982" transform="translate(-51.327 -18.44)" fill="#1a1a1a"/>
        <path id="Trazado_874116" data-name="Trazado 874116" d="M85.8,20.089a.991.991,0,0,0-.991.991V47.343a.991.991,0,1,0,1.982,0V21.08a.991.991,0,0,0-.991-.991" transform="translate(-38.881 -9.21)" fill="#1a1a1a"/>
      </g>
    </g>
  </g>
</svg>
