<svg xmlns="http://www.w3.org/2000/svg" xmlns:xlink="http://www.w3.org/1999/xlink" width="613" height="514.585" viewBox="0 0 613 514.585">
  <defs>
    <clipPath id="clip-path">
      <path id="Background" d="M0,0H593a20,20,0,0,1,20,20V494.585a20,20,0,0,1-20,20H0a0,0,0,0,1,0,0V0A0,0,0,0,1,0,0Z" transform="translate(793.024 5674.854)" fill="#eed7fe"/>
    </clipPath>
  </defs>
  <g id="Grupo_1099418" data-name="Grupo 1099418" transform="translate(-793.024 -5674.854)">
    <g id="Grupo_1098784" data-name="Grupo 1098784" transform="translate(793.024 5674.854)">
      <path id="Background-2" data-name="Background" d="M0,0H593a20,20,0,0,1,20,20V494.585a20,20,0,0,1-20,20H0Z" transform="translate(0 0)" fill="#f7ebfe"/>
      <path id="Unión_13" data-name="Unión 13" d="M102.407,29.4c-.917-1.379-1.539-2.223-2.708-2.223s-1.789.844-2.7,2.223-2.033,3.058-4.315,3.058-3.411-1.693-4.316-3.058-1.538-2.223-2.706-2.223-1.787.844-2.7,2.223-2.033,3.058-4.315,3.058-3.41-1.693-4.315-3.058-1.537-2.223-2.7-2.223-1.787.844-2.7,2.223-2.031,3.058-4.313,3.058-3.41-1.693-4.315-3.058-1.537-2.223-2.7-2.223a1.05,1.05,0,0,0-.476,0c-1.168,0-1.789.844-2.706,2.223s-2.033,3.058-4.318,3.058-3.412-1.693-4.317-3.058-1.538-2.223-2.706-2.223-1.79.844-2.706,2.223-2.033,3.058-4.315,3.058-3.411-1.693-4.316-3.058-1.537-2.223-2.7-2.223-1.789.844-2.706,2.223S24.282,32.461,22,32.461s-3.409-1.693-4.313-3.058-1.537-2.223-2.7-2.223-1.787.844-2.7,2.223-2.031,3.058-4.315,3.058S4.557,30.768,3.652,29.4s-1.537-2.223-2.7-2.223a.882.882,0,1,1,0-1.76c2.282,0,3.409,1.7,4.314,3.058C6.178,29.855,6.8,30.7,7.965,30.7s1.787-.846,2.7-2.223c.905-1.361,2.031-3.058,4.313-3.058s3.41,1.7,4.313,3.058c.917,1.377,1.537,2.223,2.7,2.223s1.789-.846,2.7-2.223c.905-1.361,2.033-3.058,4.316-3.058s3.409,1.7,4.314,3.058c.916,1.377,1.537,2.223,2.706,2.223s1.789-.846,2.7-2.223c.9-1.361,2.033-3.058,4.316-3.058s3.411,1.7,4.317,3.058c.917,1.377,1.538,2.223,2.706,2.223s1.791-.846,2.708-2.223c.905-1.361,2.035-3.058,4.317-3.058a1.015,1.015,0,0,0,.476,0c2.282,0,3.408,1.7,4.315,3.058.914,1.377,1.535,2.223,2.7,2.223s1.787-.846,2.7-2.223c.905-1.361,2.033-3.058,4.314-3.058s3.408,1.7,4.313,3.058c.916,1.377,1.535,2.223,2.7,2.223s1.787-.846,2.7-2.223c.905-1.361,2.033-3.058,4.315-3.058s3.41,1.7,4.316,3.058c.916,1.377,1.537,2.223,2.706,2.223s1.787-.846,2.7-2.223c.9-1.361,2.031-3.058,4.315-3.058s3.411,1.7,4.316,3.058c.917,1.377,1.539,2.223,2.708,2.223s1.791-.846,2.708-2.223c.906-1.361,2.033-3.058,4.317-3.058a.882.882,0,1,1,0,1.76c-1.17,0-1.791.844-2.708,2.223s-2.033,3.058-4.316,3.058S103.313,30.768,102.407,29.4Zm0-12.708c-.917-1.38-1.539-2.225-2.708-2.225s-1.789.845-2.7,2.225c-.906,1.361-2.033,3.058-4.315,3.058s-3.411-1.7-4.316-3.058c-.916-1.38-1.538-2.225-2.706-2.225s-1.787.845-2.7,2.225c-.906,1.361-2.033,3.058-4.315,3.058s-3.41-1.7-4.315-3.058c-.916-1.38-1.537-2.225-2.7-2.225s-1.787.845-2.7,2.225c-.905,1.361-2.031,3.058-4.313,3.058s-3.41-1.7-4.315-3.058c-.916-1.38-1.537-2.225-2.7-2.225a1.015,1.015,0,0,0-.476,0c-1.168,0-1.789.845-2.706,2.225-.907,1.361-2.033,3.058-4.318,3.058s-3.412-1.7-4.317-3.058c-.917-1.38-1.538-2.225-2.706-2.225s-1.79.845-2.706,2.225c-.905,1.361-2.033,3.058-4.315,3.058s-3.411-1.7-4.316-3.058c-.916-1.38-1.537-2.225-2.7-2.225s-1.789.845-2.706,2.225c-.906,1.361-2.033,3.058-4.315,3.058s-3.409-1.7-4.313-3.058c-.917-1.38-1.537-2.225-2.7-2.225s-1.787.845-2.7,2.225c-.905,1.361-2.031,3.058-4.315,3.058s-3.408-1.7-4.313-3.058c-.917-1.38-1.537-2.225-2.7-2.225a.882.882,0,1,1,0-1.76c2.282,0,3.409,1.7,4.314,3.058.916,1.378,1.537,2.222,2.7,2.222s1.787-.844,2.7-2.222c.905-1.36,2.031-3.058,4.313-3.058s3.41,1.7,4.313,3.058c.917,1.378,1.537,2.222,2.7,2.222s1.789-.844,2.7-2.222c.905-1.36,2.033-3.058,4.316-3.058s3.409,1.7,4.314,3.058c.916,1.378,1.537,2.222,2.706,2.222s1.789-.844,2.7-2.222c.9-1.36,2.033-3.058,4.316-3.058s3.411,1.7,4.317,3.058c.917,1.378,1.538,2.222,2.706,2.222s1.791-.844,2.708-2.222c.905-1.36,2.035-3.058,4.317-3.058a1.05,1.05,0,0,0,.476,0c2.282,0,3.408,1.7,4.315,3.058.914,1.378,1.535,2.222,2.7,2.222s1.787-.844,2.7-2.222c.905-1.36,2.033-3.058,4.314-3.058s3.408,1.7,4.313,3.058c.916,1.378,1.535,2.222,2.7,2.222s1.787-.844,2.7-2.222c.905-1.36,2.033-3.058,4.315-3.058s3.41,1.7,4.316,3.058c.916,1.378,1.537,2.222,2.706,2.222s1.787-.844,2.7-2.222c.9-1.36,2.031-3.058,4.315-3.058s3.411,1.7,4.316,3.058c.917,1.378,1.539,2.222,2.708,2.222s1.791-.844,2.708-2.222c.906-1.36,2.033-3.058,4.317-3.058a.882.882,0,1,1,0,1.76c-1.17,0-1.791.845-2.708,2.225-.905,1.361-2.033,3.058-4.316,3.058S103.313,18.057,102.407,16.7Zm0-12.711C101.49,2.605,100.869,1.76,99.7,1.76s-1.789.846-2.7,2.225c-.906,1.362-2.033,3.058-4.315,3.058s-3.411-1.7-4.316-3.058c-.916-1.379-1.538-2.225-2.706-2.225s-1.787.846-2.7,2.225c-.906,1.362-2.033,3.058-4.315,3.058s-3.41-1.7-4.315-3.059c-.916-1.378-1.537-2.224-2.7-2.224s-1.787.846-2.7,2.224S66.885,7.042,64.6,7.042s-3.41-1.7-4.315-3.059-1.537-2.224-2.7-2.224a1.05,1.05,0,0,0-.476,0c-1.168,0-1.789.846-2.706,2.225-.907,1.362-2.033,3.058-4.318,3.058s-3.412-1.7-4.317-3.058C44.852,2.605,44.23,1.76,43.063,1.76s-1.79.846-2.706,2.225c-.905,1.362-2.033,3.058-4.315,3.058s-3.411-1.7-4.316-3.058c-.916-1.379-1.537-2.225-2.7-2.225s-1.789.846-2.706,2.225C25.409,5.347,24.282,7.042,22,7.042s-3.409-1.7-4.313-3.059c-.917-1.378-1.537-2.224-2.7-2.224s-1.787.846-2.7,2.224S10.249,7.042,7.965,7.042s-3.408-1.7-4.313-3.059S2.115,1.76.948,1.76A.916.916,0,0,1,0,.881.916.916,0,0,1,.948,0C3.229,0,4.357,1.7,5.262,3.058c.916,1.379,1.537,2.225,2.7,2.225s1.787-.846,2.7-2.225C11.575,1.7,12.7,0,14.982,0s3.41,1.7,4.313,3.058c.917,1.379,1.537,2.225,2.7,2.225s1.789-.846,2.7-2.225C25.61,1.7,26.737,0,29.021,0s3.409,1.7,4.314,3.058c.916,1.379,1.537,2.225,2.706,2.225s1.789-.846,2.7-2.225C39.65,1.7,40.779,0,43.063,0s3.411,1.7,4.317,3.058c.917,1.379,1.538,2.225,2.706,2.225s1.791-.846,2.708-2.225C53.7,1.7,54.828,0,57.11,0a1.015,1.015,0,0,0,.476,0c2.282,0,3.408,1.7,4.315,3.058.914,1.379,1.535,2.225,2.7,2.225s1.787-.846,2.7-2.225C68.211,1.7,69.339,0,71.621,0s3.408,1.7,4.313,3.058c.916,1.379,1.535,2.225,2.7,2.225s1.787-.846,2.7-2.225C82.248,1.7,83.375,0,85.658,0s3.41,1.7,4.316,3.058c.916,1.379,1.537,2.225,2.706,2.225s1.787-.846,2.7-2.225C96.289,1.7,97.416,0,99.7,0s3.411,1.7,4.316,3.058c.917,1.379,1.539,2.225,2.708,2.225s1.791-.846,2.708-2.225C110.337,1.7,111.464,0,113.748,0a.916.916,0,0,1,.947.881.916.916,0,0,1-.947.879c-1.17,0-1.791.846-2.708,2.225-.905,1.362-2.033,3.058-4.316,3.058S103.313,5.347,102.407,3.984Z" transform="translate(464.652 450.585)" fill="#fbf2e0"/>
    </g>
    <g id="Enmascarar_grupo_1098684" data-name="Enmascarar grupo 1098684" clip-path="url(#clip-path)">
      <path id="Trazado_873179" data-name="Trazado 873179" d="M-17823.437-8743.379l-7.941,37.429,7.941,102.918,14.93,69.5-22.871,140.238,7.941,46.66v68.584l74.3,27.99,27.686,20.852,16.688,14.968,13.98-4.939h19.447l8.711,4.939,23.422-4.939s.088.209,4.033,0,32.205,5.773,37.451,4.939c5.227-.833,22.037-4.939,22.037-4.939s1.395,1.847,16.832,0,42.367,0,42.367,0,14.02-12.683,24.426-10.028c10.422,2.658,34.049-1.771,40.092,0,6.064,1.774,5.24-6.328,22.785,0,17.574,6.333,32.623,10.028,32.623,10.028l25.412-10.028s12.613-7.448,17.332,0,10.424,11.854,16.041,10.028c5.6-1.821,15.268,3.35,21.51,0s19.217-25.549,31.348-10.028c12.111,15.527,36.916,24.4,36.916,24.4l11.5-14.374,19.477-10.028s35.771,12.165,41.7,10.028,22.971-.741,30.986,0,23.025,3.777,29.971,0,24.154-10.028,24.154-10.028,15.736-6.957,21.789,0,4.455,9.781,10.084,10.028,17.3,5.855,19.439,0,2.5-1.172,6.209-10.028,16.344-20.852,16.344-20.852,6.76-43.325,0-51.331c-6.744-7.994-7.631-15.426-10.582-23.671s-5.762-28.363-5.762-28.363l5.762-73.731v-14.094s9.047-11.658,10.582-17.749-.191,4.353,0-20.525-1.834-41.619,0-54.008c1.85-12.385-.816-24.725,0-30.08s-12.635-12.712-10.582-19.4c2.068-6.686,0-20.017,0-20.017s10.484-2.4,10.582-6.278-1.918-16.32,0-27.983.482-36.9,0-40.9c-.463-4,.9-7.916,0-15.025-.877-7.106,0-26.1,0-26.1l-10.582-37.656s-17.342-20.57-22.1-25.795-41.18-27.389-41.18-27.389,1.947,13.273-24.154,13.375-36.068-3.444-41,0-59.824-4.7-61.65,0-44.2,5.664-44.2,5.664a207.354,207.354,0,0,0-23.7-5.664c-11.988-2.02-52.857,0-52.857,0s-32.355.026-33.373,0-40.605-5.022-45.7-5.816-48.8-14.036-51.721-7.559c-2.908,6.481-31.316,4.679-34.25,7.559s-23.553,6.2-32.3,5.816-40.572,5.664-40.572,5.664h-55.619s-19.314-24-34.787-19.039-65.479,7.559-65.479,7.559-35.738,9.84-37.285,11.48-7.078,21.2-7.078,21.2-24.48,11.3-27.617,12.944S-17823.437-8743.379-17823.437-8743.379Z" transform="translate(18547.359 14382.406)" fill="#eed7fe"/>
    </g>
  </g>
</svg>
