<svg xmlns="http://www.w3.org/2000/svg" xmlns:xlink="http://www.w3.org/1999/xlink" width="1240" height="468" viewBox="0 0 1240 468">
  <defs>
    <clipPath id="clip-path">
      <path id="Trazado_873175" data-name="Trazado 873175" d="M20,0H1220a20,20,0,0,1,20,20V448a20,20,0,0,1-20,20H20A20,20,0,0,1,0,448V20A20,20,0,0,1,20,0Z" transform="translate(181.019 1023)" fill="#fbf2e0"/>
    </clipPath>
  </defs>
  <g id="Grupo_1099363" data-name="Grupo 1099363" transform="translate(-181.019 -1023)">
    <path id="Trazado_873159" data-name="Trazado 873159" d="M20,0H1220a20,20,0,0,1,20,20V448a20,20,0,0,1-20,20H20A20,20,0,0,1,0,448V20A20,20,0,0,1,20,0Z" transform="translate(181.019 1023)" fill="#fbf2e0"/>
    <g id="Enmascarar_grupo_1098675" data-name="Enmascarar grupo 1098675" clip-path="url(#clip-path)">
      <path id="Trazado_873174" data-name="Trazado 873174" d="M-16548.99-8287.674l12.58-36.435-12.58-100.185-23.625-67.65,36.205-136.511-12.58-45.422v-66.76l-117.627-27.25-43.82-20.3-26.426-14.571-22.123,4.809h-30.8l-13.779-4.809-37.074,4.809s-.139-.2-6.383,0c-6.262.211-50.994-5.619-59.287-4.809s-34.885,4.809-34.885,4.809-2.213-1.8-26.658,0-67.059,0-67.059,0-22.184,12.349-38.668,9.763-53.891,1.722-63.465,0-8.277,6.158-36.076,0-51.629-9.763-51.629-9.763l-40.238,9.763s-19.959,7.25-27.422,0-16.527-11.534-25.393-9.763-24.182-3.261-34.049,0-30.437,24.87-49.629,9.763-58.441-23.754-58.441-23.754l-18.205,13.991-30.834,9.763s-56.631-11.845-66-9.763-36.369.723-49.051,0-36.455-3.677-47.445,0-38.24,9.763-38.24,9.763-24.9,6.771-34.49,0-7.055-9.52-15.959-9.763-27.4-5.7-30.777,0-3.953,1.139-9.812,9.763-25.889,20.3-25.889,20.3-10.693,42.176,0,49.967c10.672,7.786,12.076,15.021,16.748,23.045s9.141,27.607,9.141,27.607l-9.141,71.776v13.718s-14.326,11.349-16.748,17.278c-2.439,5.928.3-4.24,0,19.98-.318,24.214,2.9,40.515,0,52.57-2.918,12.059,1.287,24.071,0,29.284-1.3,5.21,20.018,12.371,16.748,18.884s0,19.482,0,19.482-16.6,2.334-16.748,6.113c-.184,3.781,3.027,15.888,0,27.24s-.777,35.921,0,39.818c.75,3.9-1.43,7.707,0,14.624,1.393,6.92,0,25.4,0,25.4l16.748,36.654s27.463,20.024,34.988,25.11,65.191,26.662,65.191,26.662-3.07-12.922,38.24-13.021,57.1,3.352,64.91,0,94.686,4.577,97.59,0,69.979-5.514,69.979-5.514,18.535,3.548,37.5,5.514,83.678,0,83.678,0,51.215-.028,52.814,0,64.273,4.888,72.334,5.662,77.266,13.662,81.881,7.358,49.586-4.553,54.234-7.358,37.281-6.039,51.117-5.662c13.818.376,64.227-5.514,64.227-5.514h88.037s30.584,23.365,55.08,18.534,103.654-7.358,103.654-7.358,56.572-9.58,59.014-11.176,11.2-20.638,11.2-20.638,38.756-11,43.727-12.6C-16575.529-8276.034-16548.99-8287.674-16548.99-8287.674Z" transform="translate(17983.895 9693.936)" fill="#f6e5c2"/>
    </g>
  </g>
</svg>
