<svg xmlns="http://www.w3.org/2000/svg" xmlns:xlink="http://www.w3.org/1999/xlink" width="315" height="404.654" viewBox="0 0 315 404.654">
  <defs>
    <clipPath id="clip-path">
      <rect id="Rectángulo_401226" data-name="Rectángulo 401226" width="315" height="404.654" rx="14" fill="none"/>
    </clipPath>
  </defs>
  <g id="Enmascarar_grupo_1098676" data-name="Enmascarar grupo 1098676" clip-path="url(#clip-path)">
    <path id="Trazado_873176" data-name="Trazado 873176" d="M-17827-8763.7l-4.381,26.336,4.381,72.415,8.232,48.9-12.613,98.675,4.381,32.831v48.257l40.984,19.694,15.27,14.672,9.205,10.531,7.711-3.476h10.727l4.8,3.476,12.92-3.476s.047.147,2.227,0,17.764,4.063,20.656,3.476,12.154-3.476,12.154-3.476.77,1.3,9.285,0,23.367,0,23.367,0,7.73-8.924,13.473-7.056,18.779-1.246,22.113,0,2.889-4.453,12.568,0a169.5,169.5,0,0,0,17.992,7.056l14.016-7.056s6.957-5.241,9.561,0,5.752,8.34,8.85,7.056,8.418,2.357,11.861,0,10.6-17.977,17.291-7.056,20.359,17.17,20.359,17.17l6.346-10.114,10.744-7.056s19.729,8.56,23,7.056,12.67-.521,17.092,0,12.7,2.658,16.529,0,13.324-7.056,13.324-7.056,8.678-4.9,12.018,0,2.457,6.882,5.561,7.056,9.547,4.12,10.723,0,1.377-.824,3.428-7.056,9.012-14.672,9.012-14.672,3.729-30.484,0-36.117-4.207-10.854-5.836-16.655-3.176-19.957-3.176-19.957l3.176-51.879v-9.917s4.992-8.2,5.836-12.488-.1,3.063,0-14.442-1.01-29.284,0-38-.447-17.4,0-21.165-6.969-8.944-5.836-13.649,0-14.084,0-14.084,5.785-1.687,5.836-4.418-1.057-11.483,0-19.689.266-25.963,0-28.78.5-5.57,0-10.572,0-18.361,0-18.361l-5.836-26.5s-9.564-14.474-12.189-18.149-22.715-19.271-22.715-19.271,1.074,9.34-13.324,9.411-19.895-2.424-22.613,0-33-3.31-34,0-24.383,3.985-24.383,3.985a94.489,94.489,0,0,0-13.066-3.985c-6.613-1.421-29.152,0-29.152,0s-17.848.019-18.41,0-22.4-3.534-25.2-4.093-26.918-9.876-28.529-5.318-17.275,3.292-18.893,5.318-12.988,4.365-17.814,4.093-22.377,3.985-22.377,3.985h-30.678s-10.652-16.89-19.186-13.4-36.117,5.318-36.117,5.318-19.713,6.924-20.564,8.078-3.9,14.917-3.9,14.917-13.5,7.953-15.234,9.107S-17827-8763.7-17827-8763.7Z" transform="translate(17752.553 8763.777)" fill="#fff"/>
  </g>
</svg>
