<svg id="Grupo_1099796" data-name="Grupo 1099796" xmlns="http://www.w3.org/2000/svg" xmlns:xlink="http://www.w3.org/1999/xlink" width="400.244" height="530.594" viewBox="0 0 400.244 530.594">
  <defs>
    <clipPath id="clip-path">
      <rect id="Rectángulo_401226" data-name="Rectángulo 401226" width="400.244" height="530.594" rx="14" fill="none"/>
    </clipPath>
  </defs>
  <path id="Trazado_873177" data-name="Trazado 873177" d="M381.217,0H19.027C8.519,0,0,8.219,0,18.357V512.237c0,10.138,8.519,18.357,19.027,18.357h362.19c10.508,0,19.027-8.219,19.027-18.357V18.357C400.244,8.219,391.726,0,381.217,0Z" transform="translate(0 0)" fill="#c8d5c6"/>
  <g id="Enmascarar_grupo_1098676" data-name="Enmascarar grupo 1098676" transform="translate(0 0)" clip-path="url(#clip-path)">
    <path id="Trazado_873176" data-name="Trazado 873176" d="M-17825.809-8748.686l-5.566,34.533,5.566,94.953,10.461,64.117-16.027,129.385,5.566,43.049v63.275l52.074,25.824,19.4,19.238,11.7,13.809,9.8-4.557h13.629l6.105,4.557,16.414-4.557s.063.193,2.828,0,22.57,5.326,26.246,4.557,15.445-4.557,15.445-4.557.977,1.7,11.8,0,29.691,0,29.691,0,9.824-11.7,17.117-9.252,23.863-1.633,28.1,0c4.25,1.635,3.672-5.84,15.969,0a211.074,211.074,0,0,0,22.863,9.252l17.809-9.252s8.84-6.873,12.148,0,7.3,10.936,11.242,9.252c3.922-1.682,10.7,3.09,15.074,0s13.469-23.572,21.969-9.252,25.871,22.514,25.871,22.514l8.063-13.262,13.648-9.252s25.07,11.225,29.223,9.252,16.1-.686,21.715,0,16.137,3.484,21,0,16.93-9.252,16.93-9.252,11.027-6.42,15.27,0,3.121,9.023,7.066,9.252,12.129,5.4,13.625,0,1.75-1.082,4.352-9.252,11.453-19.238,11.453-19.238,4.738-39.973,0-47.357-5.348-14.234-7.414-21.84-4.039-26.168-4.039-26.168l4.039-68.023v-13s6.34-10.758,7.414-16.375-.133,4.016,0-18.937-1.285-38.4,0-49.828-.57-22.811,0-27.752-8.855-11.729-7.414-17.9,0-18.467,0-18.467,7.348-2.211,7.414-5.793-1.344-15.059,0-25.816.34-34.045,0-37.738c-.324-3.691.629-7.3,0-13.863-.613-6.557,0-24.074,0-24.074l-7.414-34.744s-12.156-18.977-15.492-23.8-28.859-25.268-28.859-25.268,1.363,12.246-16.93,12.34-25.277-3.178-28.734,0-41.926-4.34-43.207,0-30.977,5.227-30.977,5.227a117.43,117.43,0,0,0-16.605-5.227c-8.4-1.863-37.043,0-37.043,0s-22.676.023-23.391,0-28.457-4.635-32.023-5.367-34.2-12.949-36.246-6.973-21.949,4.316-24,6.973-16.508,5.725-22.637,5.367-28.434,5.227-28.434,5.227h-38.98s-13.535-22.146-24.379-17.566-45.891,6.973-45.891,6.973-25.047,9.08-26.129,10.594-4.961,19.559-4.961,19.559-17.156,10.428-19.355,11.941S-17825.809-8748.686-17825.809-8748.686Z" transform="translate(17733.219 8773.703)" fill="#e3eae2"/>
  </g>
</svg>
