<svg id="Grupo_1099950" data-name="Grupo 1099950" xmlns="http://www.w3.org/2000/svg" xmlns:xlink="http://www.w3.org/1999/xlink" width="63.452" height="52.402" viewBox="0 0 63.452 52.402">
  <defs>
    <clipPath id="clip-path">
      <rect id="Rectángulo_401555" data-name="Rectángulo 401555" width="63.452" height="52.403" fill="none"/>
    </clipPath>
  </defs>
  <g id="Grupo_1099944" data-name="Grupo 1099944" transform="translate(0 0)" clip-path="url(#clip-path)">
    <path id="Trazado_874141" data-name="Trazado 874141" d="M63.452,9.153V51.477A.94.94,0,0,1,63,52.27a.883.883,0,0,1-.463.121.945.945,0,0,1-.452-.11L47.474,44.287,32.156,52.293a.041.041,0,0,0-.033.011.959.959,0,0,1-.4.1l-.011-.011a.547.547,0,0,1-.143-.033.72.72,0,0,1-.265-.066L15.979,44.287,1.367,52.282a.906.906,0,0,1-.915-.011A.94.94,0,0,1,0,51.477V9.153a.9.9,0,0,1,.485-.805L15.527.11A.066.066,0,0,0,15.571.1a.806.806,0,0,1,.364-.088c.011,0,.022-.011.033-.011h.011a.953.953,0,0,1,.386.1H16.4L31.726,8.116,47.054.1h.033a.959.959,0,0,1,.4-.1c.011,0,.022.011.033.011A.806.806,0,0,1,47.882.1a.083.083,0,0,0,.044.011L62.978,8.348a.914.914,0,0,1,.474.805M61.611,49.922V9.693L48.4,2.47V22.022a.9.9,0,0,1-.728.893,1.086,1.086,0,0,1-.187.022.922.922,0,0,1-.926-.915V2.437L32.653,9.7v17.2a.92.92,0,0,1-.408.761.952.952,0,0,1-.518.154.913.913,0,0,1-.915-.915V9.7L16.894,2.437V18.118a.927.927,0,0,1-.408.772.889.889,0,0,1-.507.154.925.925,0,0,1-.926-.926V2.47L1.842,9.693V49.922L15.053,42.7V26.2a.952.952,0,0,1,.154-.518.94.94,0,0,1,.772-.408.922.922,0,0,1,.915.926V42.688l13.917,7.267v-16a.922.922,0,0,1,.915-.926.932.932,0,0,1,.926.926v16l13.906-7.267V29.576a.889.889,0,0,1,.154-.507.927.927,0,0,1,.772-.408.913.913,0,0,1,.915.915V42.7Z" transform="translate(0 0)"/>
    <path id="Trazado_874142" data-name="Trazado 874142" d="M57.314,9.463V49.691L44.1,42.468V29.346a.913.913,0,0,0-.915-.915.927.927,0,0,0-.772.408l-.6-.926a29.379,29.379,0,0,0,5.657-4.764,3.205,3.205,0,0,0,1.345.3,3.256,3.256,0,1,0-2.735-1.511q-.893.943-1.82,1.786l-.893-1.037a.9.9,0,0,0,.728-.893V2.24ZM55.185,43.858V35.984a.932.932,0,0,0-.926-.926.922.922,0,0,0-.915.926v6.275L50.069,40.34a.918.918,0,0,0-1.257.331.908.908,0,0,0,.331,1.257L53.8,44.652a.9.9,0,0,0,.463.132.967.967,0,0,0,.463-.121.931.931,0,0,0,.463-.805" transform="translate(4.297 0.23)" fill="#6da7bf"/>
    <path id="Trazado_874143" data-name="Trazado 874143" d="M54.546,32.926V40.8a.931.931,0,0,1-.463.805.967.967,0,0,1-.463.121.9.9,0,0,1-.463-.132L48.5,38.87a.908.908,0,0,1-.331-1.257.918.918,0,0,1,1.257-.331L52.7,39.2V32.926A.922.922,0,0,1,53.62,32a.932.932,0,0,1,.926.926" transform="translate(4.936 3.288)"/>
    <path id="Trazado_874144" data-name="Trazado 874144" d="M52.489,15.6a3.237,3.237,0,1,1,0,6.473,3.205,3.205,0,0,1-1.345-.3,29.379,29.379,0,0,1-5.657,4.764A21.189,21.189,0,0,1,33.9,30c-.64,0-1.268-.033-1.908-.077-.21-.022-.419-.044-.629-.077-3.055-.562-5.2-3.132-7.113-5.415-1.974-2.36-3.672-4.4-5.911-4.168a6.964,6.964,0,0,0-5.095,3.507,12.355,12.355,0,0,0-1.125,2.316,3.346,3.346,0,0,1,.54,1.8A3.259,3.259,0,1,1,9.4,24.632a3.377,3.377,0,0,1,1.2.232c.717-1.731,2.448-4.918,5.812-6.054a7.644,7.644,0,0,1,1.731-.386c3.22-.32,5.4,2.294,7.51,4.83,1.654,1.974,3.363,4.025,5.525,4.654a4.605,4.605,0,0,0,.959.176c5.745.485,11.039-1.445,15.791-5.734q.926-.844,1.82-1.786a3.208,3.208,0,0,1-.507-1.72A3.247,3.247,0,0,1,52.489,15.6m1.4,3.242a1.4,1.4,0,1,0-1.4,1.389,1.4,1.4,0,0,0,1.4-1.389M10.816,27.885A1.417,1.417,0,1,0,9.4,29.3a1.414,1.414,0,0,0,1.412-1.412" transform="translate(0.631 1.603)"/>
    <path id="Trazado_874145" data-name="Trazado 874145" d="M48.3,17.27a1.395,1.395,0,1,1-1.4,1.4,1.4,1.4,0,0,1,1.4-1.4" transform="translate(4.819 1.775)" fill="#e17764"/>
    <path id="Trazado_874146" data-name="Trazado 874146" d="M44.708,22.688l.893,1.037c-4.753,4.29-10.046,6.22-15.791,5.734a4.605,4.605,0,0,1-.959-.176l.43-1.842a.92.92,0,0,0,.408-.761V9.477L43.594,2.21V21.795a.922.922,0,0,0,.926.915,1.086,1.086,0,0,0,.187-.022m-3.121,1.533V15.994a.921.921,0,1,0-1.842,0v8.227a.921.921,0,0,0,1.842,0" transform="translate(2.964 0.227)" fill="#a7ceda"/>
    <path id="Trazado_874147" data-name="Trazado 874147" d="M43.161,25.52l.6.926a.889.889,0,0,0-.154.507V40.065L29.7,47.332v-16a.932.932,0,0,0-.926-.926l.265-1.577c.21.033.419.055.629.077.64.044,1.268.077,1.908.077a21.189,21.189,0,0,0,11.59-3.463M41.6,38.444V30.207a.921.921,0,0,0-1.842,0v8.238a.921.921,0,0,0,1.842,0" transform="translate(2.956 2.622)" fill="#a7ceda"/>
    <path id="Trazado_874148" data-name="Trazado 874148" d="M40.572,29.855v8.238a.921.921,0,0,1-1.842,0V29.855a.921.921,0,0,1,1.842,0" transform="translate(3.98 2.974)"/>
    <path id="Trazado_874149" data-name="Trazado 874149" d="M40.572,14.8v8.227a.921.921,0,0,1-1.842,0V14.8a.921.921,0,1,1,1.842,0" transform="translate(3.98 1.425)"/>
    <path id="Trazado_874150" data-name="Trazado 874150" d="M30.708,27.441l-.43,1.842c-2.161-.629-3.871-2.68-5.525-4.654-2.106-2.536-4.29-5.15-7.51-4.83a7.644,7.644,0,0,0-1.731.386l-.562-1.522a.927.927,0,0,0,.408-.772V2.21L29.275,9.477v17.2a.913.913,0,0,0,.915.915.952.952,0,0,0,.518-.154M18.688,16.755V8.705a.913.913,0,0,0-.915-.915.922.922,0,0,0-.926.915v8.05a.932.932,0,0,0,.926.926.922.922,0,0,0,.915-.926" transform="translate(1.536 0.227)" fill="#6da7bf"/>
    <path id="Trazado_874151" data-name="Trazado 874151" d="M30.7,29.415l-.265,1.577a.922.922,0,0,0-.915.926v16L15.6,40.652V24.165a.922.922,0,0,0-.915-.926.94.94,0,0,0-.772.408l-1.334-.309a6.964,6.964,0,0,1,5.095-3.507C19.913,19.6,21.612,21.64,23.585,24c1.908,2.283,4.058,4.852,7.113,5.415M18.932,30.2v-8.05a.913.913,0,0,0-.915-.915.922.922,0,0,0-.926.915V30.2a.932.932,0,0,0,.926.926.922.922,0,0,0,.915-.926" transform="translate(1.293 2.036)" fill="#6da7bf"/>
    <path id="Trazado_874152" data-name="Trazado 874152" d="M18.512,22.015v8.05a.922.922,0,0,1-.915.926.932.932,0,0,1-.926-.926v-8.05A.922.922,0,0,1,17.6,21.1a.913.913,0,0,1,.915.915" transform="translate(1.713 2.168)"/>
    <path id="Trazado_874153" data-name="Trazado 874153" d="M18.512,8.185v8.05a.922.922,0,0,1-.915.926.932.932,0,0,1-.926-.926V8.185A.922.922,0,0,1,17.6,7.27a.913.913,0,0,1,.915.915" transform="translate(1.713 0.747)"/>
    <path id="Trazado_874154" data-name="Trazado 874154" d="M16.315,18.66l.562,1.522c-3.363,1.136-5.095,4.323-5.812,6.054A3.377,3.377,0,0,0,9.863,26a3.253,3.253,0,1,0,3.253,3.253,3.346,3.346,0,0,0-.54-1.8A12.355,12.355,0,0,1,13.7,25.144l1.334.309a.952.952,0,0,0-.154.518v16.5L1.67,49.691V9.463L14.881,2.24V17.888a.925.925,0,0,0,.926.926.889.889,0,0,0,.507-.154M10.867,8.989a.921.921,0,0,0-.915-1.6l-5.9,3.374a.926.926,0,0,0-.463.794v7.19a.932.932,0,0,0,.926.926.922.922,0,0,0,.915-.926V12.1Z" transform="translate(0.172 0.23)" fill="#a7ceda"/>
    <path id="Trazado_874155" data-name="Trazado 874155" d="M11.03,7.263a.921.921,0,0,1-.342,1.257L5.252,11.63v6.65a.922.922,0,0,1-.915.926.932.932,0,0,1-.926-.926V11.09a.926.926,0,0,1,.463-.794l5.9-3.374a.921.921,0,0,1,1.257.342" transform="translate(0.35 0.699)"/>
    <path id="Trazado_874156" data-name="Trazado 874156" d="M9.233,25.46A1.412,1.412,0,1,1,7.81,26.872,1.414,1.414,0,0,1,9.233,25.46" transform="translate(0.803 2.616)" fill="#e17764"/>
  </g>
</svg>
