<svg id="Grupo_1099951" data-name="Grupo 1099951" xmlns="http://www.w3.org/2000/svg" xmlns:xlink="http://www.w3.org/1999/xlink" width="52.301" height="77.607" viewBox="0 0 52.301 77.607">
  <defs>
    <clipPath id="clip-path">
      <rect id="Rectángulo_401558" data-name="Rectángulo 401558" width="52.301" height="77.607" fill="none"/>
    </clipPath>
  </defs>
  <g id="Grupo_1099946" data-name="Grupo 1099946" transform="translate(0 0)" clip-path="url(#clip-path)">
    <path id="Trazado_874157" data-name="Trazado 874157" d="M52.3,63.525V76.45a1.166,1.166,0,0,1-1.171,1.157H1.157A1.154,1.154,0,0,1,0,76.45V63.525a10.969,10.969,0,0,1,2.147-6.5V42.777a4.2,4.2,0,0,1,4.2-4.2h3.667c-.418-1-.809-2.05-1.143-3.137a.049.049,0,0,1-.028.014c-3.151,0-5.717-2.83-5.717-6.3a6.252,6.252,0,0,1,3.862-5.926,6.492,6.492,0,0,1-.962-3.318,20.121,20.121,0,0,1,40.24,0,6.36,6.36,0,0,1-.962,3.318,6.232,6.232,0,0,1,3.862,5.926c0,3.472-2.552,6.3-5.7,6.3-.014,0-.028-.014-.042-.014q-.5,1.631-1.129,3.137h3.667a4.2,4.2,0,0,1,4.2,4.2v14.25a10.969,10.969,0,0,1,2.147,6.5M49.972,75.279V63.525a8.7,8.7,0,0,0-6.4-8.366v20.12ZM47.825,54.685V49.749H34.37V52.51h6.9a10.942,10.942,0,0,1,6.553,2.175m0-7.264V42.777a1.868,1.868,0,0,0-1.868-1.868H41.2a24.929,24.929,0,0,1-4.755,6.511ZM44.1,33.045a3.849,3.849,0,0,0,2.733-3.89,4.05,4.05,0,0,0-1.729-3.444c-.014.181-.028.376-.042.558-.014.251-.028.488-.042.739a39.193,39.193,0,0,1-.711,5.02l-.042.209c-.056.279-.1.544-.167.809M8.408,18.753H43.879a17.81,17.81,0,0,0-34.23-5.382h24.8a1.166,1.166,0,0,1,1.157,1.171A1.154,1.154,0,0,1,34.453,15.7H8.9a17.008,17.008,0,0,0-.488,3.054m35.346,2.328H8.533a5.43,5.43,0,0,0,.7,1.352.03.03,0,0,1,.028.028A8.541,8.541,0,0,0,11,24.191a1.579,1.579,0,0,0,.181.139c.153.125.321.223.488.335s.335.223.5.321l.293.167A24.934,24.934,0,0,0,21.291,27.9a.523.523,0,0,0,.153.014c.418.07.837.112,1.269.153.112.014.209.014.321.028l1.2.084c.125,0,.237.014.363.014q.774.042,1.548.042c.53,0,1.046-.014,1.562-.042.112,0,.237-.014.363-.014l1.2-.084c.1-.014.209-.014.307-.028.432-.042.864-.084,1.283-.153a.572.572,0,0,0,.153-.014,25.027,25.027,0,0,0,8.826-2.747c.1-.056.181-.112.279-.167.181-.1.349-.209.516-.321a5.778,5.778,0,0,0,.474-.335,2.366,2.366,0,0,0,.2-.139,8.456,8.456,0,0,0,1.729-1.729c.014-.014.028-.014.042-.028a4.942,4.942,0,0,0,.683-1.352m-1.018,5.3a3.151,3.151,0,0,1,.014-.363c-.139.1-.293.2-.446.293-.251.181-.5.363-.781.53-.223.139-.446.265-.683.4-.265.153-.544.293-.837.432-.237.125-.474.251-.739.363-.335.153-.7.293-1.06.446-.223.084-.418.167-.641.251q-.878.314-1.84.586c-.153.042-.307.07-.46.112-.516.139-1.032.265-1.576.376-.223.042-.446.084-.683.125-.488.084-.99.167-1.492.251-.251.028-.488.056-.739.1-.53.056-1.06.112-1.6.153l-.683.042q-1.15.084-2.342.084c-.795,0-1.562-.028-2.342-.084l-.669-.042c-.544-.042-1.088-.1-1.617-.167l-.725-.084q-.774-.125-1.506-.251l-.669-.125q-.816-.167-1.59-.376c-.153-.042-.307-.07-.446-.112q-.962-.272-1.84-.586c-.223-.084-.418-.167-.641-.251-.363-.153-.725-.293-1.074-.446-.251-.112-.488-.237-.725-.349-.293-.153-.572-.293-.837-.446-.237-.139-.474-.265-.7-.4-.265-.167-.53-.349-.781-.53-.139-.1-.293-.2-.432-.293a3.274,3.274,0,0,0,.014.363c.014.307.056.6.084.906.042.516.084,1.032.153,1.548.042.293.084.586.139.878q.1.774.251,1.548c.056.251.112.516.167.781.125.53.251,1.06.39,1.59a31.651,31.651,0,0,0,2.036,5.605.292.292,0,0,1,.056.084A20.189,20.189,0,0,0,19.729,47.6a11.335,11.335,0,0,0,12.842,0,20.3,20.3,0,0,0,6.888-8.282l.042-.084a32.807,32.807,0,0,0,2.05-5.605c.139-.53.265-1.06.39-1.6.056-.265.112-.516.153-.767.112-.516.2-1.032.265-1.548.042-.293.1-.586.139-.878.056-.516.112-1.046.153-1.576l.084-.878M41.244,54.838H37.451V75.279h3.793ZM35.123,75.279V54.838h-.962c-.014.028-.028.042-.042.07a3.58,3.58,0,0,1-.376.725,4.179,4.179,0,0,1-.558.669.7.7,0,0,1-.112.1,4.768,4.768,0,0,1-.7.572.847.847,0,0,0-.139.1c-.265.167-.558.335-.864.488-.028.014-.07.028-.1.042a9.9,9.9,0,0,1-.962.39l-.125.042c-.349.112-.711.209-1.1.293l-.209.042a10.525,10.525,0,0,1-1.185.181c-.07.014-.139.014-.209.028-.432.028-.878.056-1.339.056s-.892-.028-1.325-.056c-.07-.014-.139-.014-.209-.028a10.525,10.525,0,0,1-1.185-.181c-.084-.014-.153-.028-.223-.042-.376-.084-.753-.181-1.1-.293-.042-.014-.07-.028-.112-.042a9.9,9.9,0,0,1-.962-.39c-.042-.014-.07-.028-.112-.042a9.739,9.739,0,0,1-.851-.488.939.939,0,0,0-.153-.1,5.643,5.643,0,0,1-.7-.572l-.1-.1a4.179,4.179,0,0,1-.558-.669,3.58,3.58,0,0,1-.376-.725c-.014-.028-.028-.042-.042-.07h-.962V75.279ZM32.041,53.667v-3.1a14.132,14.132,0,0,1-1.882.725c-.153.056-.307.1-.446.139-.418.112-.823.2-1.241.279-.209.028-.4.07-.6.1a12.451,12.451,0,0,1-1.436.112c-.1,0-.2.014-.293.014s-.181-.014-.279-.014a12.451,12.451,0,0,1-1.436-.112c-.209-.028-.4-.07-.6-.1-.418-.084-.837-.167-1.241-.279a4.171,4.171,0,0,1-.446-.139,13.434,13.434,0,0,1-1.882-.725v3.1c0,1.241,2.524,2.635,5.884,2.635s5.9-1.394,5.9-2.635M17.931,52.51V49.749H4.476v4.936a10.869,10.869,0,0,1,6.539-2.175ZM4.476,47.42H15.853A24.929,24.929,0,0,1,11.1,40.909H6.344a1.868,1.868,0,0,0-1.868,1.868Zm10.374,7.418H11.043V75.279h3.806ZM8.714,75.279V55.159a8.683,8.683,0,0,0-6.386,8.366V75.279Zm-.53-42.234c-.056-.265-.112-.53-.167-.809l-.042-.209a39.187,39.187,0,0,1-.7-5.02c-.014-.251-.042-.488-.056-.739,0-.2-.028-.376-.028-.558a4.061,4.061,0,0,0-1.743,3.444,3.865,3.865,0,0,0,2.733,3.89" transform="translate(0 0)"/>
    <path id="Trazado_874158" data-name="Trazado 874158" d="M37.65,47.926V59.68h-6.4V39.56a8.7,8.7,0,0,1,6.4,8.366" transform="translate(12.322 15.599)" fill="#a7ceda"/>
    <path id="Trazado_874159" data-name="Trazado 874159" d="M38.105,35.68v4.936a10.942,10.942,0,0,0-6.553-2.175h-6.9V35.68Z" transform="translate(9.72 14.069)" fill="#acdaa3"/>
    <path id="Trazado_874160" data-name="Trazado 874160" d="M37.518,31.208v4.643H26.14a24.929,24.929,0,0,0,4.755-6.511h4.755a1.868,1.868,0,0,1,1.868,1.868" transform="translate(10.307 11.569)" fill="#6a8f64"/>
    <path id="Trazado_874161" data-name="Trazado 874161" d="M34.363,21.884a3.849,3.849,0,0,1-2.733,3.89c.07-.265.112-.53.167-.809l.042-.209a39.192,39.192,0,0,0,.711-5.02c.014-.251.028-.488.042-.739.014-.181.028-.376.042-.558a4.05,4.05,0,0,1,1.729,3.444" transform="translate(12.472 7.271)" fill="#f8e995"/>
    <path id="Trazado_874162" data-name="Trazado 874162" d="M41.5,18.095H6.03a17.008,17.008,0,0,1,.488-3.054H32.076a1.154,1.154,0,0,0,1.157-1.157,1.166,1.166,0,0,0-1.157-1.171H7.271A17.81,17.81,0,0,1,41.5,18.095" transform="translate(2.378 0.658)" fill="#a7ceda"/>
    <path id="Trazado_874163" data-name="Trazado 874163" d="M6.12,15.12H41.34a4.942,4.942,0,0,1-.683,1.352c-.014.014-.028.014-.042.028a8.456,8.456,0,0,1-1.729,1.729,2.366,2.366,0,0,1-.2.139,5.778,5.778,0,0,1-.474.335c-.167.112-.335.223-.516.321-.1.056-.181.112-.279.167A25.027,25.027,0,0,1,28.6,21.938a.572.572,0,0,1-.153.014c-.418.07-.851.112-1.283.153-.1.014-.209.014-.307.028l-1.2.084c-.125,0-.251.014-.363.014-.516.028-1.032.042-1.562.042s-1.032-.014-1.548-.042c-.125,0-.237-.014-.363-.014l-1.2-.084c-.112-.014-.209-.014-.321-.028-.432-.042-.851-.084-1.269-.153a.523.523,0,0,1-.153-.014,24.934,24.934,0,0,1-8.826-2.747l-.293-.167c-.167-.1-.335-.209-.5-.321s-.335-.209-.488-.335a1.578,1.578,0,0,1-.181-.139A8.541,8.541,0,0,1,6.845,16.5a.03.03,0,0,0-.028-.028,5.43,5.43,0,0,1-.7-1.352" transform="translate(2.413 5.962)" fill="#6da7bf"/>
    <path id="Trazado_874164" data-name="Trazado 874164" d="M40.049,18.66a3.151,3.151,0,0,0-.014.363l-.084.878c-.042.53-.1,1.06-.153,1.576-.042.293-.1.586-.139.878-.07.516-.153,1.032-.265,1.548-.042.251-.1.5-.153.767-.125.544-.251,1.074-.39,1.6a32.808,32.808,0,0,1-2.05,5.605l-.042.084a20.3,20.3,0,0,1-6.888,8.282,11.757,11.757,0,0,1-6.428,1.994,11.747,11.747,0,0,1-6.414-1.994,20.189,20.189,0,0,1-6.888-8.282.292.292,0,0,0-.056-.084,31.651,31.651,0,0,1-2.036-5.605c-.139-.53-.265-1.06-.39-1.59-.056-.265-.112-.53-.167-.781q-.146-.774-.251-1.548c-.056-.293-.1-.586-.139-.878-.07-.516-.112-1.032-.153-1.548-.028-.307-.07-.6-.084-.906a3.274,3.274,0,0,1-.014-.363c.139.1.293.2.432.293.251.181.516.363.781.53.223.139.46.265.7.4.265.153.544.293.837.446.237.112.474.237.725.349.349.153.711.293,1.074.446.223.084.418.167.641.251q.878.314,1.84.586c.139.042.293.07.446.112q.774.209,1.59.376l.669.125q.732.125,1.506.251l.725.084c.53.07,1.074.125,1.617.167l.669.042c.781.056,1.548.084,2.342.084s1.576-.028,2.342-.084l.683-.042c.544-.042,1.074-.1,1.6-.153.251-.042.488-.07.739-.1.5-.084,1-.167,1.492-.251.237-.042.46-.084.683-.125.544-.112,1.06-.237,1.576-.376.153-.042.307-.07.46-.112q.962-.272,1.84-.586c.223-.084.418-.167.641-.251.363-.153.725-.293,1.06-.446.265-.112.5-.237.739-.363.293-.139.572-.279.837-.432.237-.139.46-.265.683-.4.279-.167.53-.349.781-.53.153-.1.307-.2.446-.293" transform="translate(2.701 7.358)" fill="#f8e995"/>
    <rect id="Rectángulo_401556" data-name="Rectángulo 401556" width="3.793" height="20.441" transform="translate(37.451 54.838)" fill="#87ba7d"/>
    <path id="Trazado_874165" data-name="Trazado 874165" d="M30.265,39.33V59.771H12.32V39.33h.962c.014.028.028.042.042.07a3.58,3.58,0,0,0,.376.725,4.179,4.179,0,0,0,.558.669l.1.1a5.642,5.642,0,0,0,.7.572.939.939,0,0,1,.153.1,9.739,9.739,0,0,0,.851.488c.042.014.07.028.112.042a9.9,9.9,0,0,0,.962.39c.042.014.07.028.112.042.349.112.725.209,1.1.293.07.014.139.028.223.042a10.524,10.524,0,0,0,1.185.181c.07.014.139.014.209.028.432.028.878.056,1.325.056s.906-.028,1.339-.056c.07-.014.139-.014.209-.028a10.524,10.524,0,0,0,1.185-.181l.209-.042c.39-.084.753-.181,1.1-.293l.125-.042a9.9,9.9,0,0,0,.962-.39c.028-.014.07-.028.1-.042.307-.153.6-.321.864-.488a.847.847,0,0,1,.139-.1,4.768,4.768,0,0,0,.7-.572.7.7,0,0,0,.112-.1,4.179,4.179,0,0,0,.558-.669,3.58,3.58,0,0,0,.376-.725c.014-.028.028-.042.042-.07Z" transform="translate(4.858 15.508)" fill="#a7ceda"/>
    <path id="Trazado_874166" data-name="Trazado 874166" d="M26.312,36.27v3.1c0,1.241-2.524,2.635-5.9,2.635s-5.884-1.394-5.884-2.635v-3.1A13.434,13.434,0,0,0,16.412,37a4.17,4.17,0,0,0,.446.139c.4.112.823.2,1.241.279.2.028.39.07.6.1a12.451,12.451,0,0,0,1.436.112c.1,0,.2.014.279.014s.2-.014.293-.014a12.451,12.451,0,0,0,1.436-.112c.2-.028.39-.07.6-.1.418-.084.823-.167,1.241-.279.139-.042.293-.084.446-.139a14.132,14.132,0,0,0,1.882-.725" transform="translate(5.729 14.302)" fill="#f8e995"/>
    <path id="Trazado_874167" data-name="Trazado 874167" d="M16.665,35.68v2.761H9.749A10.869,10.869,0,0,0,3.21,40.616V35.68Z" transform="translate(1.266 14.069)" fill="#acdaa3"/>
    <path id="Trazado_874168" data-name="Trazado 874168" d="M14.588,35.851H3.21V31.208A1.868,1.868,0,0,1,5.078,29.34H9.833a24.929,24.929,0,0,0,4.755,6.511" transform="translate(1.266 11.569)" fill="#6a8f64"/>
    <rect id="Rectángulo_401557" data-name="Rectángulo 401557" width="3.806" height="20.441" transform="translate(11.043 54.838)" fill="#87ba7d"/>
    <path id="Trazado_874169" data-name="Trazado 874169" d="M8.056,39.56V59.68H1.67V47.926A8.683,8.683,0,0,1,8.056,39.56" transform="translate(0.658 15.599)" fill="#a7ceda"/>
    <path id="Trazado_874170" data-name="Trazado 874170" d="M6.476,24.965c.056.279.112.544.167.809a3.865,3.865,0,0,1-2.733-3.89A4.061,4.061,0,0,1,5.653,18.44c0,.181.028.363.028.558.014.251.042.488.056.739a39.187,39.187,0,0,0,.7,5.02l.042.209" transform="translate(1.542 7.271)" fill="#f8e995"/>
  </g>
</svg>
