<svg id="Grupo_1099952" data-name="Grupo 1099952" xmlns="http://www.w3.org/2000/svg" xmlns:xlink="http://www.w3.org/1999/xlink" width="48.872" height="70.678" viewBox="0 0 48.872 70.678">
  <defs>
    <clipPath id="clip-path">
      <rect id="Rectángulo_401559" data-name="Rectángulo 401559" width="48.872" height="70.678" fill="none"/>
    </clipPath>
  </defs>
  <g id="Grupo_1099948" data-name="Grupo 1099948" transform="translate(0 0)" clip-path="url(#clip-path)">
    <path id="Trazado_874171" data-name="Trazado 874171" d="M48.872,13.39V67.8a2.886,2.886,0,0,1-2.88,2.88H1.1a1.1,1.1,0,0,1-1.1-1.1V11.625c0-.04.013-.053.013-.08.013-.08.027-.146.04-.226a1.246,1.246,0,0,1,.08-.2c.027-.053.066-.106.106-.173s.093-.106.146-.159a1.965,1.965,0,0,1,.173-.106.948.948,0,0,1,.2-.106c.027,0,.04-.027.066-.027L41.24.064A3.027,3.027,0,0,1,44.9,3.024V10.51h1.088a2.886,2.886,0,0,1,2.88,2.88M46.656,67.8V13.39a.674.674,0,0,0-.664-.664H6.783V27.42a1.1,1.1,0,0,1-1.1,1.115A1.113,1.113,0,0,1,4.566,27.42V12.726H2.217V68.461H4.566V53.768a1.11,1.11,0,0,1,1.115-1.1,1.1,1.1,0,0,1,1.1,1.1V68.461H45.992a.666.666,0,0,0,.664-.664M42.687,10.51V7.59l-8.88.956a.367.367,0,0,1-.119.013,1.112,1.112,0,0,1-.119-2.217l9.119-.982V3.024a.811.811,0,0,0-.969-.8L9.782,10.51Z" transform="translate(0 0)"/>
    <path id="Trazado_874172" data-name="Trazado 874172" d="M46.109,30.588v27.2a.666.666,0,0,1-.664.664H6.236V43.755a1.1,1.1,0,0,0-1.1-1.1,1.11,1.11,0,0,0-1.115,1.1V58.449H1.67V30.588H4.59c0,.557.04,1.115.093,1.672.013.226.04.438.066.65.04.319.093.637.146.942.093.544.212,1.075.345,1.593.04.146.066.305.119.451v.013A19.355,19.355,0,0,0,18.554,49.1l.013.013c.159.04.305.08.465.119.518.133,1.049.252,1.58.345.319.053.637.106.956.133l.637.08c.571.053,1.128.08,1.686.08s1.115-.027,1.672-.08c.226-.027.438-.053.65-.08.319-.027.637-.08.942-.133.544-.093,1.075-.212,1.593-.345.159-.04.305-.08.451-.119.013,0,.013,0,.013-.013A19.33,19.33,0,0,0,42.406,35.911c.013,0,.013,0,.013-.013.04-.146.08-.305.119-.465a15.63,15.63,0,0,0,.332-1.566q.1-.478.159-.956c.013-.212.04-.425.066-.65q.08-.836.08-1.672Z" transform="translate(0.547 10.013)" fill="#f8e995"/>
    <path id="Trazado_874173" data-name="Trazado 874173" d="M46.109,10.252v27.21H43.176c0-.557-.027-1.128-.08-1.686-.027-.212-.053-.425-.066-.637-.04-.319-.093-.637-.146-.956-.093-.544-.212-1.062-.345-1.593-.04-.146-.08-.292-.119-.451l-.013-.013A19.355,19.355,0,0,0,29.212,18.932H29.2c-.146-.053-.305-.08-.451-.119-.531-.133-1.062-.252-1.606-.345-.305-.053-.6-.106-.9-.146-.226-.027-.465-.053-.7-.066-.478-.04-.969-.066-1.447-.08-.066,0-.133-.013-.2-.013s-.133.013-.212.013q-.717.02-1.434.08c-.239.013-.478.04-.717.066-.292.04-.6.093-.889.146-.544.093-1.075.212-1.606.345-.146.04-.305.066-.465.119h-.013A19.355,19.355,0,0,0,5.36,32.126v.013c-.053.146-.08.305-.119.451-.133.518-.252,1.062-.345,1.593-.053.319-.106.637-.146.942-.027.226-.053.438-.066.65-.053.571-.093,1.128-.093,1.686H1.67V9.588H4.019V24.282A1.113,1.113,0,0,0,5.134,25.4a1.1,1.1,0,0,0,1.1-1.115V9.588H45.445a.674.674,0,0,1,.664.664" transform="translate(0.547 3.139)" fill="#f8e995"/>
    <path id="Trazado_874174" data-name="Trazado 874174" d="M42.376,33.662c.053.557.08,1.128.08,1.686s-.027,1.115-.08,1.672c-.027.226-.053.438-.066.65q-.06.478-.159.956a15.63,15.63,0,0,1-.332,1.566c-.04.159-.08.319-.119.465,0,.013,0,.013-.013.013A19.33,19.33,0,0,1,28.492,53.864c0,.013,0,.013-.013.013-.146.04-.292.08-.451.119-.518.133-1.049.252-1.593.345-.305.053-.624.106-.942.133-.212.027-.425.053-.65.08q-.836.08-1.672.08c-.557,0-1.115-.027-1.686-.08l-.637-.08c-.319-.027-.637-.08-.956-.133-.531-.093-1.062-.212-1.58-.345-.159-.04-.305-.08-.465-.119l-.013-.013A19.355,19.355,0,0,1,4.64,40.67v-.013c-.053-.146-.08-.305-.119-.451-.133-.518-.252-1.049-.345-1.593-.053-.305-.106-.624-.146-.942-.027-.212-.053-.425-.066-.65-.053-.557-.093-1.115-.093-1.672s.04-1.115.093-1.686c.013-.212.04-.425.066-.65.04-.305.093-.624.146-.942.093-.531.212-1.075.345-1.593.04-.146.066-.305.119-.451v-.013A19.355,19.355,0,0,1,17.834,16.818h.013c.159-.053.319-.08.465-.119.531-.133,1.062-.252,1.606-.345.292-.053.6-.106.889-.146.239-.027.478-.053.717-.066q.717-.06,1.434-.08c.08,0,.146-.013.212-.013s.133.013.2.013c.478.013.969.04,1.447.08.239.013.478.04.7.066.305.04.6.093.9.146.544.093,1.075.212,1.606.345.146.04.305.066.451.119h.013A19.355,19.355,0,0,1,41.686,30.012l.013.013c.04.159.08.305.119.451.133.531.252,1.049.345,1.593.053.319.106.637.146.956.013.212.04.425.066.637m-9.238.571h7.035c-.027-.305-.027-.611-.066-.929-.013-.106-.04-.212-.053-.332a16.181,16.181,0,0,0-.345-1.779c-.013-.053-.027-.093-.04-.146a24.884,24.884,0,0,0-6.982-2.509,46.439,46.439,0,0,1,.451,5.694m7.035,2.217H33.138a46.449,46.449,0,0,1-.451,5.708,24.877,24.877,0,0,0,6.982-2.522c.013-.04.027-.093.04-.133a17.045,17.045,0,0,0,.345-1.792c.013-.106.04-.212.053-.332.04-.305.04-.611.066-.929m-1.58-8.362a17.136,17.136,0,0,0-8.163-8.176,32.412,32.412,0,0,1,1.872,6.3,31.381,31.381,0,0,1,6.292,1.872M30.43,50.771a17.053,17.053,0,0,0,8.163-8.163A32.271,32.271,0,0,1,32.3,44.479a32.271,32.271,0,0,1-1.872,6.292M24.271,34.232h6.663a47.073,47.073,0,0,0-.531-6.119,47.28,47.28,0,0,0-6.132-.531Zm6.663,2.217H24.271v6.663a47.28,47.28,0,0,0,6.132-.531,47.281,47.281,0,0,0,.531-6.132m-.956-10.632a24.772,24.772,0,0,0-2.522-6.982.472.472,0,0,0-.133-.027,14.2,14.2,0,0,0-1.818-.358l-.279-.04c-.319-.04-.637-.04-.956-.066v7.022a49.21,49.21,0,0,1,5.708.451M27.457,51.846a24.877,24.877,0,0,0,2.522-6.982,46.448,46.448,0,0,1-5.708.451v7.035c.319-.027.624-.027.942-.066.106-.013.212-.04.319-.053a17.044,17.044,0,0,0,1.792-.345c.04-.013.093-.027.133-.04m-5.4.5V45.316a46.439,46.439,0,0,1-5.694-.451,24.884,24.884,0,0,0,2.509,6.982c.053.013.093.027.146.04a17.044,17.044,0,0,0,1.792.345c.106.013.212.04.319.053.305.04.624.04.929.066m0-9.238V36.449H15.4a47.281,47.281,0,0,0,.531,6.132,47.072,47.072,0,0,0,6.119.531m0-8.88v-6.65a47.072,47.072,0,0,0-6.119.531,47.073,47.073,0,0,0-.531,6.119Zm0-8.867V18.344c-.305.027-.624.027-.942.066-.093.013-.186.027-.292.04a14.467,14.467,0,0,0-1.805.358.564.564,0,0,0-.146.027,25.2,25.2,0,0,0-2.509,6.982,49.213,49.213,0,0,1,5.694-.451m-8.017.849a31.517,31.517,0,0,1,1.872-6.3,17.22,17.22,0,0,0-8.176,8.176,31.517,31.517,0,0,1,6.3-1.872m1.872,24.556a31.381,31.381,0,0,1-1.872-6.292,32.412,32.412,0,0,1-6.3-1.872,17.136,17.136,0,0,0,8.176,8.163M13.188,34.232a49.213,49.213,0,0,1,.451-5.694,25.2,25.2,0,0,0-6.982,2.509.565.565,0,0,0-.027.146,16.226,16.226,0,0,0-.358,1.779c-.013.119-.027.226-.04.332-.04.319-.04.624-.066.929Zm.451,7.924a49.21,49.21,0,0,1-.451-5.708H6.166c.027.319.027.624.066.929.013.119.027.226.04.332A17.116,17.116,0,0,0,6.631,39.5a.472.472,0,0,0,.027.133,25.189,25.189,0,0,0,6.982,2.522" transform="translate(1.267 5.253)"/>
    <path id="Trazado_874175" data-name="Trazado 874175" d="M40.275,7.045v2.92H7.37L39.306,1.682a.811.811,0,0,1,.969.8V4.815L31.156,5.8a1.112,1.112,0,0,0,.119,2.217A.367.367,0,0,0,31.395,8Z" transform="translate(2.412 0.545)" fill="#edc16c"/>
    <path id="Trazado_874176" data-name="Trazado 874176" d="M33.066,31.152H26.031a46.439,46.439,0,0,0-.451-5.694,24.884,24.884,0,0,1,6.982,2.509c.013.053.027.093.04.146a16.181,16.181,0,0,1,.345,1.779c.013.119.04.226.053.332.04.319.04.624.066.929" transform="translate(8.373 8.333)" fill="#a7ceda"/>
    <path id="Trazado_874177" data-name="Trazado 874177" d="M26.031,31.418h7.035c-.027.319-.027.624-.066.929-.013.119-.04.226-.053.332a17.045,17.045,0,0,1-.345,1.792c-.013.04-.027.093-.04.133a24.877,24.877,0,0,1-6.982,2.522,46.449,46.449,0,0,0,.451-5.708" transform="translate(8.373 10.284)" fill="#6da7bf"/>
    <path id="Trazado_874178" data-name="Trazado 874178" d="M23.88,18.958a17.136,17.136,0,0,1,8.163,8.176,31.381,31.381,0,0,0-6.292-1.872,32.412,32.412,0,0,0-1.872-6.3" transform="translate(7.817 6.206)" fill="#6da7bf"/>
    <path id="Trazado_874179" data-name="Trazado 874179" d="M32.043,36.058a17.053,17.053,0,0,1-8.163,8.163,32.271,32.271,0,0,0,1.872-6.292,32.271,32.271,0,0,0,6.292-1.872" transform="translate(7.817 11.803)" fill="#a7ceda"/>
    <path id="Trazado_874180" data-name="Trazado 874180" d="M25.9,31.388H19.24v-6.65a47.28,47.28,0,0,1,6.132.531,47.073,47.073,0,0,1,.531,6.119" transform="translate(6.298 8.098)" fill="#6da7bf"/>
    <path id="Trazado_874181" data-name="Trazado 874181" d="M19.24,31.418H25.9a47.281,47.281,0,0,1-.531,6.132,47.281,47.281,0,0,1-6.132.531Z" transform="translate(6.298 10.284)" fill="#a7ceda"/>
    <path id="Trazado_874182" data-name="Trazado 874182" d="M22.426,18.269a24.772,24.772,0,0,1,2.522,6.982A49.21,49.21,0,0,0,19.24,24.8V17.778c.319.027.637.027.956.066l.279.04a14.2,14.2,0,0,1,1.818.358.472.472,0,0,1,.133.027" transform="translate(6.298 5.819)" fill="#a7ceda"/>
    <path id="Trazado_874183" data-name="Trazado 874183" d="M24.948,37.758a24.877,24.877,0,0,1-2.522,6.982c-.04.013-.093.027-.133.04a17.044,17.044,0,0,1-1.792.345c-.106.013-.212.04-.319.053-.319.04-.624.04-.942.066V38.209a46.448,46.448,0,0,0,5.708-.451" transform="translate(6.298 12.36)" fill="#6da7bf"/>
    <path id="Trazado_874184" data-name="Trazado 874184" d="M18.974,38.209v7.035c-.305-.027-.624-.027-.929-.066-.106-.013-.212-.04-.319-.053a17.044,17.044,0,0,1-1.792-.345c-.053-.013-.093-.027-.146-.04a24.884,24.884,0,0,1-2.509-6.982,46.439,46.439,0,0,0,5.694.451" transform="translate(4.347 12.36)" fill="#a7ceda"/>
    <path id="Trazado_874185" data-name="Trazado 874185" d="M19.21,31.418v6.663a47.073,47.073,0,0,1-6.119-.531,47.281,47.281,0,0,1-.531-6.132Z" transform="translate(4.111 10.284)" fill="#6da7bf"/>
    <path id="Trazado_874186" data-name="Trazado 874186" d="M19.21,24.738v6.65H12.56a47.073,47.073,0,0,1,.531-6.119,47.072,47.072,0,0,1,6.119-.531" transform="translate(4.111 8.098)" fill="#a7ceda"/>
    <path id="Trazado_874187" data-name="Trazado 874187" d="M18.974,17.778V24.8a49.213,49.213,0,0,0-5.694.451,25.2,25.2,0,0,1,2.509-6.982.564.564,0,0,1,.146-.027,14.467,14.467,0,0,1,1.805-.358c.106-.013.2-.027.292-.04.319-.04.637-.04.942-.066" transform="translate(4.347 5.819)" fill="#6da7bf"/>
    <path id="Trazado_874188" data-name="Trazado 874188" d="M14.956,18.958a31.517,31.517,0,0,0-1.872,6.3,31.517,31.517,0,0,0-6.3,1.872,17.22,17.22,0,0,1,8.176-8.176" transform="translate(2.219 6.206)" fill="#a7ceda"/>
    <path id="Trazado_874189" data-name="Trazado 874189" d="M13.085,37.93a31.381,31.381,0,0,0,1.872,6.292A17.136,17.136,0,0,1,6.78,36.058a32.412,32.412,0,0,0,6.3,1.872" transform="translate(2.219 11.803)" fill="#6da7bf"/>
    <path id="Trazado_874190" data-name="Trazado 874190" d="M13.073,25.458a49.213,49.213,0,0,0-.451,5.694H5.6c.027-.305.027-.611.066-.929.013-.106.027-.212.04-.332a16.226,16.226,0,0,1,.358-1.779.565.565,0,0,1,.027-.146,25.2,25.2,0,0,1,6.982-2.509" transform="translate(1.833 8.333)" fill="#6da7bf"/>
    <path id="Trazado_874191" data-name="Trazado 874191" d="M12.622,31.418a49.21,49.21,0,0,0,.451,5.708A25.189,25.189,0,0,1,6.091,34.6a.472.472,0,0,1-.027-.133,17.116,17.116,0,0,1-.358-1.792c-.013-.106-.027-.212-.04-.332-.04-.305-.04-.611-.066-.929Z" transform="translate(1.833 10.284)" fill="#a7ceda"/>
  </g>
</svg>
