<svg xmlns="http://www.w3.org/2000/svg" width="51" height="51" viewBox="0 0 51 51">
  <g id="Grupo_1099715" data-name="Grupo 1099715" transform="translate(-180.73 -5772.494)">
    <path id="Trazado_872996" data-name="Trazado 872996" d="M25.5,0A25.5,25.5,0,1,1,0,25.5,25.5,25.5,0,0,1,25.5,0Z" transform="translate(180.73 5772.494)" fill="#f6e5c2"/>
    <g id="FILLED_OUTLINE" transform="translate(169.56 5760.323)">
      <circle id="Elipse_11495" data-name="Elipse 11495" cx="20.534" cy="20.534" r="20.534" transform="translate(16.838 16.427)" fill="#ffa488"/>
      <path id="Trazado_873417" data-name="Trazado 873417" d="M138.489,24a20.369,20.369,0,0,0-11.369,3.447l5.9,5.9a2.745,2.745,0,0,0,3.881,0,4.242,4.242,0,0,1,6,0l.176.176a1.5,1.5,0,0,0,2.117,0,1.5,1.5,0,0,1,2.117,0l1.3,1.3a13.629,13.629,0,0,0,9.554,3.991A20.474,20.474,0,0,0,138.489,24Z" transform="translate(-101.319 -7.294)" fill="#31c292"/>
      <rect id="Rectángulo_401253" data-name="Rectángulo 401253" width="16.762" height="24.305" rx="8.381" transform="translate(21.029 30.675)" fill="#31c292"/>
      <ellipse id="Elipse_11496" data-name="Elipse 11496" cx="1.676" cy="1.257" rx="1.676" ry="1.257" transform="translate(22.705 54.981)" fill="#6e6e6e"/>
      <ellipse id="Elipse_11497" data-name="Elipse 11497" cx="1.676" cy="1.257" rx="1.676" ry="1.257" transform="translate(32.762 54.981)" fill="#6e6e6e"/>
      <path id="Trazado_873418" data-name="Trazado 873418" d="M141.646,35.054h-1.411V18.823a1.411,1.411,0,1,0-2.823,0V35.054H136V18.823a2.823,2.823,0,1,1,5.646,0Z" transform="translate(-109.415 0)" fill="#6e6e6e"/>
      <path id="Trazado_873419" data-name="Trazado 873419" d="M112,248h1.411v16.231H112Z" transform="translate(-87.532 -211.535)" fill="#7fddbb"/>
      <path id="Trazado_873420" data-name="Trazado 873420" d="M160,248h1.411v16.231H160Z" transform="translate(-131.298 -211.535)" fill="#7fddbb"/>
      <path id="Trazado_873421" data-name="Trazado 873421" d="M208,248h1.411v16.231H208Z" transform="translate(-175.064 -211.535)" fill="#7fddbb"/>
      <path id="Trazado_873422" data-name="Trazado 873422" d="M241.967,209.057l-7.648,15.9a1.411,1.411,0,0,0,.66,1.884l12.719,6.118,8.165-16.937Z" transform="translate(-198.934 -176.027)" fill="#ededed"/>
      <path id="Trazado_873423" data-name="Trazado 873423" d="M334.393,208.79l-12.719-6.118a1.411,1.411,0,0,1,1.224-2.544l12.719,6.118Z" transform="translate(-277.981 -167.759)" fill="#bebebe"/>
      <circle id="Elipse_11498" data-name="Elipse 11498" cx="4.234" cy="4.234" r="4.234" transform="translate(42.123 39.792)" fill="#bebebe"/>
      <path id="Trazado_873424" data-name="Trazado 873424" d="M0,0H1.411V7.057H0Z" transform="translate(39.488 50.117) rotate(-64.332)" fill="#bebebe"/>
      <path id="Trazado_873425" data-name="Trazado 873425" d="M310.82,28.94,308.7,30.351l-4.234-2.823,2.117-2.823L305.88,24l-4.234,2.117-1.639-.983a2.823,2.823,0,0,0-3.448.425l-.559.559L307.754,33.3a1.411,1.411,0,0,0,1.734-.206l2.743-2.743Z" transform="translate(-255.301 -7.294)" fill="#dfdfdf"/>
      <path id="Trazado_873426" data-name="Trazado 873426" d="M321.918,293.153a4.259,4.259,0,0,0,.252-.662l-1.911-.919a6.857,6.857,0,0,0,.41-2.434l-.018-1.2a4.252,4.252,0,0,0-1.5-.719l-.951.736a6.859,6.859,0,0,0-1.646,1.84l-1.911-.919a4.254,4.254,0,0,0-.359.609v0a4.253,4.253,0,0,0-.252.661l1.911.919a6.858,6.858,0,0,0-.41,2.434l.018,1.2a4.251,4.251,0,0,0,1.5.719l.951-.736a6.859,6.859,0,0,0,1.646-1.84l1.911.919A4.261,4.261,0,0,0,321.918,293.153Zm-4.781.414-.186.144,0-.235a5.445,5.445,0,0,1,.279-1.8l1.14.548A5.447,5.447,0,0,1,317.136,293.567Zm1.841-2.611-1.14-.548a5.445,5.445,0,0,1,1.23-1.34l.186-.144,0,.235A5.444,5.444,0,0,1,318.978,290.956Z" transform="translate(-271.745 -247.291)" fill="#dfdfdf"/>
      <g id="Grupo_1099423" data-name="Grupo 1099423" transform="translate(15.999 16)">
        <path id="Trazado_873427" data-name="Trazado 873427" d="M218.279,17.411a20.064,20.064,0,0,1,2.045.1l.145-1.4a21.426,21.426,0,0,0-5.839.2l.242,1.391a19.954,19.954,0,0,1,3.408-.293Z" transform="translate(-197.108 -16)" fill="#3a312b"/>
        <path id="Trazado_873428" data-name="Trazado 873428" d="M25.587,62.687l-.828-1.143A21.187,21.187,0,0,0,18.19,88.086l1.265-.627a19.776,19.776,0,0,1,6.133-24.772Z" transform="translate(-15.999 -57.526)" fill="#3a312b"/>
        <path id="Trazado_873429" data-name="Trazado 873429" d="M263.729,469.963l.048,1.411a21.132,21.132,0,0,0,5.841-1.027L269.18,469A19.723,19.723,0,0,1,263.729,469.963Z" transform="translate(-241.877 -429.044)" fill="#3a312b"/>
        <path id="Trazado_873430" data-name="Trazado 873430" d="M112,248h1.411v16.231H112Z" transform="translate(-103.532 -227.535)" fill="#3a312b"/>
        <path id="Trazado_873431" data-name="Trazado 873431" d="M160,248h1.411v16.231H160Z" transform="translate(-147.297 -227.535)" fill="#3a312b"/>
        <path id="Trazado_873432" data-name="Trazado 873432" d="M208,248h1.411v16.231H208Z" transform="translate(-191.063 -227.535)" fill="#3a312b"/>
        <path id="Trazado_873433" data-name="Trazado 873433" d="M101.708,37.852,88.989,31.734a2.12,2.12,0,0,0-2.826.99l-3.815,7.931V33.642a3.533,3.533,0,0,0-3.528-3.528H76V18.823a2.823,2.823,0,0,0-5.646,0V30.114H67.528A3.533,3.533,0,0,0,64,33.642V51.991a3.534,3.534,0,0,0,2.326,3.317,2.117,2.117,0,1,0,3.9.211h5.888a2.117,2.117,0,1,0,3.9-.211,3.542,3.542,0,0,0,2.238-2.535l9.965,4.793a.705.705,0,0,0,.942-.33l8.871-18.443A.706.706,0,0,0,101.708,37.852ZM88.072,32.936a.7.7,0,0,1,.3.07l12.083,5.812-.612,1.272L87.765,34.278a.707.707,0,0,1-.33-.941h0A.707.707,0,0,1,88.072,32.936ZM71.763,18.823a1.411,1.411,0,1,1,2.823,0V30.114H71.763Zm-2.823,37.4a.706.706,0,1,1-.706-.706.706.706,0,0,1,.706.706Zm9.174.706a.706.706,0,1,1,.706-.706A.706.706,0,0,1,78.114,56.931Zm.706-2.823H67.528a2.12,2.12,0,0,1-2.117-2.117V33.642a2.12,2.12,0,0,1,2.117-2.117h2.823v3.529h1.411V31.525h2.823v3.529H76V31.525H78.82a2.12,2.12,0,0,1,2.117,2.117V43.59l-2.421,5.033a2.117,2.117,0,0,0,.99,2.826l1.425.686a2.119,2.119,0,0,1-2.112,1.974ZM92.2,55.989,80.118,50.177a.706.706,0,0,1-.33-.942l6.782-14.1a2.107,2.107,0,0,0,.583.415l12.083,5.812Z" transform="translate(-59.766 -16)" fill="#3a312b"/>
        <path id="Trazado_873434" data-name="Trazado 873434" d="M311.223,278.192a4.94,4.94,0,1,0,2.31,6.593A4.94,4.94,0,0,0,311.223,278.192Zm1.28,5.315-1.265-.609a6.857,6.857,0,0,0,.41-2.434l0-.245A3.541,3.541,0,0,1,312.5,283.507Zm-4.387,1.387-.186.144,0-.235a5.444,5.444,0,0,1,.279-1.8l1.14.548A5.447,5.447,0,0,1,308.116,284.893Zm.7-3.16a5.445,5.445,0,0,1,1.23-1.34l.186-.144,0,.235a5.446,5.446,0,0,1-.279,1.8Zm.27-2.618c.1,0,.192.005.289.013l-.193.149a6.859,6.859,0,0,0-1.646,1.84l-1.264-.608A3.54,3.54,0,0,1,309.087,279.115Zm-3.428,2.665,1.266.609a6.859,6.859,0,0,0-.41,2.434l0,.247a3.536,3.536,0,0,1-.86-3.29Zm3.127,4.379.193-.15a6.861,6.861,0,0,0,1.646-1.84l1.265.609A3.541,3.541,0,0,1,308.787,286.159Z" transform="translate(-278.723 -254.617)" fill="#3a312b"/>
        <path id="Trazado_873435" data-name="Trazado 873435" d="M0,0H1.411V7.057H0Z" transform="translate(23.489 34.117) rotate(-64.332)" fill="#3a312b"/>
        <path id="Trazado_873436" data-name="Trazado 873436" d="M228.849,109.567a2.205,2.205,0,0,0-3.115,0,.792.792,0,0,1-1.119,0l-.176-.176a4.953,4.953,0,0,0-7,0,2.025,2.025,0,0,1-1.442.6V111.4a3.428,3.428,0,0,0,2.44-1.01,3.54,3.54,0,0,1,5,0l.176.176a2.205,2.205,0,0,0,3.115,0,.792.792,0,0,1,1.119,0l1.3,1.3a14.232,14.232,0,0,0,9.51,4.185,19.717,19.717,0,0,1,.58,3.591l1.408-.1a20.972,20.972,0,0,0-2.192-8.031l-1.261.634a19.68,19.68,0,0,1,1.034,2.463,12.827,12.827,0,0,1-8.081-3.742Z" transform="translate(-198.357 -99.833)" fill="#3a312b"/>
        <path id="Trazado_873437" data-name="Trazado 873437" d="M288.338,19.425l11.754,7.183a2.111,2.111,0,0,0,2.6-.309l2.743-2.743a.706.706,0,0,0,0-1l-1.411-1.411a.706.706,0,0,0-.891-.088l-1.726,1.15-3.222-2.148,1.669-2.226a.706.706,0,0,0-.066-.922l-.706-.706a.706.706,0,0,0-.815-.132l-3.888,1.944-1.306-.784a3.523,3.523,0,0,0-4.31.531l-.559.559a.706.706,0,0,0,.131,1.1Zm4.012-.98,1.639.983a.706.706,0,0,0,.679.026l3.536-1.768-1.594,2.125a.706.706,0,0,0,.173,1.011l4.234,2.823a.706.706,0,0,0,.783,0l1.636-1.091.5.5L301.7,25.3a.7.7,0,0,1-.867.1l-10.987-6.714A2.114,2.114,0,0,1,292.35,18.445Z" transform="translate(-264.006 -16)" fill="#3a312b"/>
      </g>
    </g>
  </g>
</svg>
